<mxfile host="app.diagrams.net" modified="2024-04-12T22:30:50.707Z" agent="Mozilla/5.0 (Windows NT 10.0; Win64; x64) AppleWebKit/537.36 (KHTML, like Gecko) Chrome/123.0.0.0 Safari/537.36" etag="osO142v6lJ6d4IpdFY74" version="24.2.3" type="device">
  <diagram id="C5RBs43oDa-KdzZeNtuy" name="Page-1">
    <mxGraphModel dx="1028" dy="1669" grid="0" gridSize="10" guides="1" tooltips="1" connect="1" arrows="1" fold="1" page="1" pageScale="1" pageWidth="827" pageHeight="1169" background="#99CCFF" math="0" shadow="0">
      <root>
        <mxCell id="WIyWlLk6GJQsqaUBKTNV-0" />
        <mxCell id="WIyWlLk6GJQsqaUBKTNV-1" parent="WIyWlLk6GJQsqaUBKTNV-0" />
        <mxCell id="zkfFHV4jXpPFQw0GAbJ--0" value="Kitchen" style="swimlane;fontStyle=3;align=center;verticalAlign=top;childLayout=stackLayout;horizontal=1;startSize=26;horizontalStack=0;resizeParent=1;resizeLast=0;collapsible=1;marginBottom=0;rounded=1;shadow=0;strokeWidth=1;labelBackgroundColor=none;fillColor=#21C0A5;strokeColor=#006658;fontColor=#000000;fontFamily=Verdana;labelBorderColor=none;textShadow=1;html=1;spacingTop=3;spacing=3;spacingLeft=10;" parent="WIyWlLk6GJQsqaUBKTNV-1" vertex="1">
          <mxGeometry x="450" y="304.5" width="160" height="90" as="geometry">
            <mxRectangle x="230" y="140" width="160" height="26" as="alternateBounds" />
          </mxGeometry>
        </mxCell>
        <mxCell id="zkfFHV4jXpPFQw0GAbJ--1" value="name: string" style="text;align=left;verticalAlign=top;spacingLeft=10;spacingRight=4;overflow=hidden;rotatable=0;points=[[0,0.5],[1,0.5]];portConstraint=eastwest;fontStyle=3;labelBackgroundColor=none;fontColor=#000000;rounded=1;fontFamily=Verdana;labelBorderColor=none;textShadow=1;html=1;spacingTop=3;spacing=3;" parent="zkfFHV4jXpPFQw0GAbJ--0" vertex="1">
          <mxGeometry y="26" width="160" height="26" as="geometry" />
        </mxCell>
        <mxCell id="zkfFHV4jXpPFQw0GAbJ--4" value="" style="line;strokeWidth=1;align=left;verticalAlign=middle;spacingTop=3;spacingLeft=10;spacingRight=3;rotatable=0;labelPosition=right;points=[];portConstraint=eastwest;fontStyle=3;labelBackgroundColor=none;fillColor=#21C0A5;strokeColor=#006658;fontColor=#000000;rounded=1;fontFamily=Verdana;labelBorderColor=none;textShadow=1;html=1;spacing=3;" parent="zkfFHV4jXpPFQw0GAbJ--0" vertex="1">
          <mxGeometry y="52" width="160" height="8" as="geometry" />
        </mxCell>
        <mxCell id="zkfFHV4jXpPFQw0GAbJ--5" value="assignChef(): bool" style="text;align=left;verticalAlign=top;spacingLeft=10;spacingRight=4;overflow=hidden;rotatable=0;points=[[0,0.5],[1,0.5]];portConstraint=eastwest;fontStyle=3;labelBackgroundColor=none;fontColor=#000000;rounded=1;fontFamily=Verdana;labelBorderColor=none;textShadow=1;html=1;spacingTop=3;spacing=3;" parent="zkfFHV4jXpPFQw0GAbJ--0" vertex="1">
          <mxGeometry y="60" width="160" height="26" as="geometry" />
        </mxCell>
        <mxCell id="zkfFHV4jXpPFQw0GAbJ--6" value="TableChart" style="swimlane;fontStyle=3;align=center;verticalAlign=top;childLayout=stackLayout;horizontal=1;startSize=26;horizontalStack=0;resizeParent=1;resizeLast=0;collapsible=1;marginBottom=0;rounded=1;shadow=0;strokeWidth=1;labelBackgroundColor=none;fillColor=#21C0A5;strokeColor=#006658;fontColor=#000000;fontFamily=Verdana;labelBorderColor=none;textShadow=1;html=1;spacingTop=3;spacing=3;spacingLeft=10;" parent="WIyWlLk6GJQsqaUBKTNV-1" vertex="1">
          <mxGeometry x="100" y="670" width="160" height="141" as="geometry">
            <mxRectangle x="120" y="360" width="160" height="26" as="alternateBounds" />
          </mxGeometry>
        </mxCell>
        <mxCell id="zkfFHV4jXpPFQw0GAbJ--7" value="tableChart: int&lt;br&gt;tableChartimage: blob&lt;br&gt;" style="text;align=left;verticalAlign=top;spacingLeft=10;spacingRight=4;overflow=hidden;rotatable=0;points=[[0,0.5],[1,0.5]];portConstraint=eastwest;fontStyle=3;labelBackgroundColor=none;fontColor=#000000;rounded=1;fontFamily=Verdana;labelBorderColor=none;textShadow=1;html=1;spacingTop=3;spacing=3;" parent="zkfFHV4jXpPFQw0GAbJ--6" vertex="1">
          <mxGeometry y="26" width="160" height="84" as="geometry" />
        </mxCell>
        <mxCell id="jX0K1Ipz3QZNNp4KO0iQ-1" value="print():bool" style="rounded=1;align=left;fontStyle=3;labelBackgroundColor=none;fillColor=#009999;strokeColor=#CCFFFF;fontColor=#000000;fontFamily=Verdana;labelBorderColor=none;textShadow=1;html=1;spacingTop=3;spacing=3;spacingLeft=10;" vertex="1" parent="zkfFHV4jXpPFQw0GAbJ--6">
          <mxGeometry y="110" width="160" height="27" as="geometry" />
        </mxCell>
        <mxCell id="jX0K1Ipz3QZNNp4KO0iQ-2" value="Branch" style="swimlane;fontStyle=3;align=center;verticalAlign=top;childLayout=stackLayout;horizontal=1;startSize=26;horizontalStack=0;resizeParent=1;resizeLast=0;collapsible=1;marginBottom=0;rounded=1;shadow=0;strokeWidth=1;labelBackgroundColor=none;fillColor=#21C0A5;strokeColor=#006658;fontColor=#000000;fontFamily=Verdana;labelBorderColor=none;textShadow=1;html=1;spacingTop=3;spacing=3;spacingLeft=10;" vertex="1" parent="WIyWlLk6GJQsqaUBKTNV-1">
          <mxGeometry x="103" y="292.5" width="188" height="127.5" as="geometry">
            <mxRectangle x="230" y="140" width="160" height="26" as="alternateBounds" />
          </mxGeometry>
        </mxCell>
        <mxCell id="jX0K1Ipz3QZNNp4KO0iQ-3" value="name: string&amp;nbsp;&lt;br&gt;location: address" style="text;align=left;verticalAlign=top;spacingLeft=10;spacingRight=4;overflow=hidden;rotatable=0;points=[[0,0.5],[1,0.5]];portConstraint=eastwest;fontStyle=3;labelBackgroundColor=none;fontColor=#000000;rounded=1;fontFamily=Verdana;labelBorderColor=none;textShadow=1;html=1;spacingTop=3;spacing=3;" vertex="1" parent="jX0K1Ipz3QZNNp4KO0iQ-2">
          <mxGeometry y="26" width="188" height="54" as="geometry" />
        </mxCell>
        <mxCell id="jX0K1Ipz3QZNNp4KO0iQ-6" value="" style="line;strokeWidth=1;align=left;verticalAlign=middle;spacingTop=3;spacingLeft=10;spacingRight=3;rotatable=0;labelPosition=right;points=[];portConstraint=eastwest;fontStyle=3;labelBackgroundColor=none;fillColor=#21C0A5;strokeColor=#006658;fontColor=#000000;rounded=1;fontFamily=Verdana;labelBorderColor=none;textShadow=1;html=1;spacing=3;" vertex="1" parent="jX0K1Ipz3QZNNp4KO0iQ-2">
          <mxGeometry y="80" width="188" height="8" as="geometry" />
        </mxCell>
        <mxCell id="jX0K1Ipz3QZNNp4KO0iQ-7" value="addTableChart():bool" style="text;align=left;verticalAlign=top;spacingLeft=10;spacingRight=4;overflow=hidden;rotatable=0;points=[[0,0.5],[1,0.5]];portConstraint=eastwest;fontStyle=3;labelBackgroundColor=none;fontColor=#000000;rounded=1;fontFamily=Verdana;labelBorderColor=none;textShadow=1;html=1;spacingTop=3;spacing=3;strokeColor=#CCFFFF;fillColor=#009999;" vertex="1" parent="jX0K1Ipz3QZNNp4KO0iQ-2">
          <mxGeometry y="88" width="188" height="26" as="geometry" />
        </mxCell>
        <mxCell id="jX0K1Ipz3QZNNp4KO0iQ-21" value="Person" style="swimlane;fontStyle=3;align=center;verticalAlign=top;childLayout=stackLayout;horizontal=1;startSize=26;horizontalStack=0;resizeParent=1;resizeLast=0;collapsible=1;marginBottom=0;rounded=1;shadow=0;strokeWidth=1;labelBackgroundColor=none;fillColor=#21C0A5;strokeColor=#006658;fontColor=#000000;fontFamily=Verdana;labelBorderColor=none;textShadow=1;html=1;spacingTop=3;spacing=3;spacingLeft=10;" vertex="1" parent="WIyWlLk6GJQsqaUBKTNV-1">
          <mxGeometry x="690" y="40" width="160" height="106" as="geometry">
            <mxRectangle x="300" y="180" width="160" height="26" as="alternateBounds" />
          </mxGeometry>
        </mxCell>
        <mxCell id="jX0K1Ipz3QZNNp4KO0iQ-22" value="name: string&lt;br&gt;email: string&lt;br&gt;phone: string" style="text;align=left;verticalAlign=top;spacingLeft=10;spacingRight=4;overflow=hidden;rotatable=0;points=[[0,0.5],[1,0.5]];portConstraint=eastwest;fontStyle=3;labelBackgroundColor=none;fontColor=#000000;rounded=1;fontFamily=Verdana;labelBorderColor=none;textShadow=1;html=1;spacingTop=3;spacing=3;" vertex="1" parent="jX0K1Ipz3QZNNp4KO0iQ-21">
          <mxGeometry y="26" width="160" height="80" as="geometry" />
        </mxCell>
        <mxCell id="jX0K1Ipz3QZNNp4KO0iQ-24" value="" style="line;strokeWidth=1;align=left;verticalAlign=middle;spacingTop=3;spacingLeft=10;spacingRight=3;rotatable=0;labelPosition=right;points=[];portConstraint=eastwest;fontStyle=3;labelBackgroundColor=none;fillColor=#21C0A5;strokeColor=#006658;fontColor=#000000;rounded=1;fontFamily=Verdana;labelBorderColor=none;textShadow=1;html=1;spacing=3;" vertex="1" parent="jX0K1Ipz3QZNNp4KO0iQ-21">
          <mxGeometry y="106" width="160" as="geometry" />
        </mxCell>
        <mxCell id="jX0K1Ipz3QZNNp4KO0iQ-28" value="Resturants" style="swimlane;fontStyle=3;align=center;verticalAlign=top;childLayout=stackLayout;horizontal=1;startSize=26;horizontalStack=0;resizeParent=1;resizeLast=0;collapsible=1;marginBottom=0;rounded=1;shadow=0;strokeWidth=1;labelBackgroundColor=none;fillColor=#21C0A5;strokeColor=#006658;fontColor=#000000;fontFamily=Verdana;labelBorderColor=none;textShadow=1;html=1;spacingTop=3;spacing=3;spacingLeft=10;" vertex="1" parent="WIyWlLk6GJQsqaUBKTNV-1">
          <mxGeometry x="110" y="40" width="160" height="100" as="geometry">
            <mxRectangle x="80" y="180" width="160" height="26" as="alternateBounds" />
          </mxGeometry>
        </mxCell>
        <mxCell id="jX0K1Ipz3QZNNp4KO0iQ-30" value="+ name: string" style="text;align=left;verticalAlign=top;spacingLeft=10;spacingRight=4;overflow=hidden;rotatable=0;points=[[0,0.5],[1,0.5]];portConstraint=eastwest;rounded=1;shadow=0;fontStyle=3;labelBackgroundColor=none;fontColor=#000000;fontFamily=Verdana;labelBorderColor=none;textShadow=1;html=1;spacingTop=3;spacing=3;" vertex="1" parent="jX0K1Ipz3QZNNp4KO0iQ-28">
          <mxGeometry y="26" width="160" height="34" as="geometry" />
        </mxCell>
        <mxCell id="jX0K1Ipz3QZNNp4KO0iQ-31" value="" style="line;strokeWidth=1;align=left;verticalAlign=middle;spacingTop=3;spacingLeft=10;spacingRight=3;rotatable=0;labelPosition=right;points=[];portConstraint=eastwest;fontStyle=3;labelBackgroundColor=none;fillColor=#21C0A5;strokeColor=#006658;fontColor=#000000;rounded=1;fontFamily=Verdana;labelBorderColor=none;textShadow=1;html=1;spacing=3;" vertex="1" parent="jX0K1Ipz3QZNNp4KO0iQ-28">
          <mxGeometry y="60" width="160" height="8" as="geometry" />
        </mxCell>
        <mxCell id="jX0K1Ipz3QZNNp4KO0iQ-32" value="addBranch():boll" style="text;align=left;verticalAlign=top;spacingLeft=10;spacingRight=4;overflow=hidden;rotatable=0;points=[[0,0.5],[1,0.5]];portConstraint=eastwest;fontStyle=3;labelBackgroundColor=none;fontColor=#000000;rounded=1;fontFamily=Verdana;labelBorderColor=none;textShadow=1;html=1;spacingTop=3;spacing=3;strokeColor=#CCFFFF;fillColor=#009999;" vertex="1" parent="jX0K1Ipz3QZNNp4KO0iQ-28">
          <mxGeometry y="68" width="160" height="32" as="geometry" />
        </mxCell>
        <mxCell id="jX0K1Ipz3QZNNp4KO0iQ-41" value="Account" style="swimlane;fontStyle=3;align=center;verticalAlign=top;childLayout=stackLayout;horizontal=1;startSize=26;horizontalStack=0;resizeParent=1;resizeLast=0;collapsible=1;marginBottom=0;rounded=1;shadow=0;strokeWidth=1;labelBackgroundColor=none;fillColor=#21C0A5;strokeColor=#006658;fontColor=#000000;fontFamily=Verdana;labelBorderColor=none;textShadow=1;html=1;spacingTop=3;spacing=3;spacingLeft=10;" vertex="1" parent="WIyWlLk6GJQsqaUBKTNV-1">
          <mxGeometry x="1120" y="281" width="192" height="169" as="geometry">
            <mxRectangle x="300" y="180" width="160" height="26" as="alternateBounds" />
          </mxGeometry>
        </mxCell>
        <mxCell id="jX0K1Ipz3QZNNp4KO0iQ-42" value="id: string&lt;br&gt;password: string&lt;br&gt;address: Address&lt;br&gt;status: AccountStatus" style="text;align=left;verticalAlign=top;spacingLeft=10;spacingRight=4;overflow=hidden;rotatable=0;points=[[0,0.5],[1,0.5]];portConstraint=eastwest;fontStyle=3;labelBackgroundColor=none;fontColor=#000000;rounded=1;fontFamily=Verdana;labelBorderColor=none;textShadow=1;html=1;spacingTop=3;spacing=3;" vertex="1" parent="jX0K1Ipz3QZNNp4KO0iQ-41">
          <mxGeometry y="26" width="192" height="84" as="geometry" />
        </mxCell>
        <mxCell id="jX0K1Ipz3QZNNp4KO0iQ-44" value="" style="line;strokeWidth=1;align=left;verticalAlign=middle;spacingTop=3;spacingLeft=10;spacingRight=3;rotatable=0;labelPosition=right;points=[];portConstraint=eastwest;fontStyle=3;labelBackgroundColor=none;fillColor=#21C0A5;strokeColor=#006658;fontColor=#000000;rounded=1;fontFamily=Verdana;labelBorderColor=none;textShadow=1;html=1;spacing=3;" vertex="1" parent="jX0K1Ipz3QZNNp4KO0iQ-41">
          <mxGeometry y="110" width="192" height="8" as="geometry" />
        </mxCell>
        <mxCell id="jX0K1Ipz3QZNNp4KO0iQ-47" value="resetPassword(): bool" style="text;align=left;verticalAlign=middle;rounded=1;fontFamily=Verdana;fontSize=12;fontStyle=3;labelBackgroundColor=none;fontColor=#000000;labelBorderColor=none;textShadow=1;html=1;spacingTop=3;spacing=3;spacingLeft=10;strokeColor=#CCFFFF;fillColor=#009999;" vertex="1" parent="jX0K1Ipz3QZNNp4KO0iQ-41">
          <mxGeometry y="118" width="192" height="35" as="geometry" />
        </mxCell>
        <mxCell id="jX0K1Ipz3QZNNp4KO0iQ-62" value="Check/Bill" style="swimlane;fontStyle=3;align=center;verticalAlign=top;childLayout=stackLayout;horizontal=1;startSize=26;horizontalStack=0;resizeParent=1;resizeLast=0;collapsible=1;marginBottom=0;rounded=1;shadow=0;strokeWidth=1;labelBackgroundColor=none;fillColor=#21C0A5;strokeColor=#006658;fontColor=#000000;fontFamily=Verdana;labelBorderColor=none;textShadow=1;html=1;spacingTop=3;spacing=3;spacingLeft=10;" vertex="1" parent="WIyWlLk6GJQsqaUBKTNV-1">
          <mxGeometry x="100" y="880" width="160" height="140" as="geometry">
            <mxRectangle x="120" y="360" width="160" height="26" as="alternateBounds" />
          </mxGeometry>
        </mxCell>
        <mxCell id="jX0K1Ipz3QZNNp4KO0iQ-63" value="checkID; int&lt;br&gt;amount: double&lt;br&gt;tip: double&lt;br&gt;tax: double&lt;br&gt;isPaid: bool" style="text;align=left;verticalAlign=top;spacingLeft=10;spacingRight=4;overflow=hidden;rotatable=0;points=[[0,0.5],[1,0.5]];portConstraint=eastwest;fontStyle=3;labelBackgroundColor=none;fontColor=#000000;rounded=1;fontFamily=Verdana;labelBorderColor=none;textShadow=1;html=1;spacingTop=3;spacing=3;" vertex="1" parent="jX0K1Ipz3QZNNp4KO0iQ-62">
          <mxGeometry y="26" width="160" height="84" as="geometry" />
        </mxCell>
        <mxCell id="jX0K1Ipz3QZNNp4KO0iQ-64" value="createBill(): bool" style="rounded=1;align=left;fontStyle=3;labelBackgroundColor=none;fillColor=#009999;strokeColor=#006658;fontColor=#000000;fontFamily=Verdana;labelBorderColor=none;textShadow=1;html=1;spacingTop=3;spacing=3;spacingLeft=10;" vertex="1" parent="jX0K1Ipz3QZNNp4KO0iQ-62">
          <mxGeometry y="110" width="160" height="30" as="geometry" />
        </mxCell>
        <mxCell id="jX0K1Ipz3QZNNp4KO0iQ-65" value="Order" style="swimlane;fontStyle=3;align=center;verticalAlign=top;childLayout=stackLayout;horizontal=1;startSize=26;horizontalStack=0;resizeParent=1;resizeLast=0;collapsible=1;marginBottom=0;rounded=1;shadow=0;strokeWidth=1;labelBackgroundColor=none;fillColor=#21C0A5;strokeColor=#006658;fontColor=#000000;fontFamily=Verdana;labelBorderColor=none;textShadow=1;html=1;spacingTop=3;spacing=3;spacingLeft=10;" vertex="1" parent="WIyWlLk6GJQsqaUBKTNV-1">
          <mxGeometry x="430" y="679" width="184" height="145" as="geometry">
            <mxRectangle x="120" y="360" width="160" height="26" as="alternateBounds" />
          </mxGeometry>
        </mxCell>
        <mxCell id="jX0K1Ipz3QZNNp4KO0iQ-66" value="orderID: int&lt;br&gt;status: OrderStatus" style="text;align=left;verticalAlign=top;spacingLeft=10;spacingRight=4;overflow=hidden;rotatable=0;points=[[0,0.5],[1,0.5]];portConstraint=eastwest;fontStyle=3;labelBackgroundColor=none;fontColor=#000000;rounded=1;fontFamily=Verdana;labelBorderColor=none;textShadow=1;html=1;spacingTop=3;spacing=3;" vertex="1" parent="jX0K1Ipz3QZNNp4KO0iQ-65">
          <mxGeometry y="26" width="184" height="60" as="geometry" />
        </mxCell>
        <mxCell id="jX0K1Ipz3QZNNp4KO0iQ-67" value="addMeal(): bool&lt;br&gt;removeMeal(): bool&lt;br&gt;setStatus(): OrderStatus" style="rounded=1;align=left;fontStyle=3;labelBackgroundColor=none;fillColor=#009999;strokeColor=#CCFFFF;fontColor=#000000;fontFamily=Verdana;labelBorderColor=none;textShadow=1;html=1;spacingTop=3;spacing=3;spacingLeft=10;" vertex="1" parent="jX0K1Ipz3QZNNp4KO0iQ-65">
          <mxGeometry y="86" width="184" height="59" as="geometry" />
        </mxCell>
        <mxCell id="jX0K1Ipz3QZNNp4KO0iQ-68" value="Table" style="swimlane;fontStyle=3;align=center;verticalAlign=top;childLayout=stackLayout;horizontal=1;startSize=26;horizontalStack=0;resizeParent=1;resizeLast=0;collapsible=1;marginBottom=0;rounded=1;shadow=0;strokeWidth=1;labelBackgroundColor=none;fillColor=#21C0A5;strokeColor=#006658;fontColor=#000000;fontFamily=Verdana;labelBorderColor=none;textShadow=1;html=1;spacingTop=3;spacing=3;spacingLeft=10;" vertex="1" parent="WIyWlLk6GJQsqaUBKTNV-1">
          <mxGeometry x="730" y="690" width="179" height="144" as="geometry">
            <mxRectangle x="120" y="360" width="160" height="26" as="alternateBounds" />
          </mxGeometry>
        </mxCell>
        <mxCell id="jX0K1Ipz3QZNNp4KO0iQ-69" value="tableID: int&lt;br&gt;status: TableStatus&lt;br&gt;maxCapacity: int&amp;nbsp;&lt;br&gt;locationIdentifier: int" style="text;align=left;verticalAlign=top;spacingLeft=10;spacingRight=4;overflow=hidden;rotatable=0;points=[[0,0.5],[1,0.5]];portConstraint=eastwest;fontStyle=3;labelBackgroundColor=none;fontColor=#000000;rounded=1;fontFamily=Verdana;labelBorderColor=none;textShadow=1;html=1;spacingTop=3;spacing=3;" vertex="1" parent="jX0K1Ipz3QZNNp4KO0iQ-68">
          <mxGeometry y="26" width="179" height="74" as="geometry" />
        </mxCell>
        <mxCell id="jX0K1Ipz3QZNNp4KO0iQ-70" value="addReservation(): bool" style="rounded=1;align=left;fontStyle=3;labelBackgroundColor=none;fillColor=#009999;strokeColor=#CCFFFF;fontColor=#000000;fontFamily=Verdana;labelBorderColor=none;textShadow=1;html=1;spacingTop=3;spacing=3;spacingLeft=10;" vertex="1" parent="jX0K1Ipz3QZNNp4KO0iQ-68">
          <mxGeometry y="100" width="179" height="44" as="geometry" />
        </mxCell>
        <mxCell id="jX0K1Ipz3QZNNp4KO0iQ-72" value="Reservation" style="swimlane;fontStyle=3;align=center;verticalAlign=top;childLayout=stackLayout;horizontal=1;startSize=26;horizontalStack=0;resizeParent=1;resizeLast=0;collapsible=1;marginBottom=0;rounded=1;shadow=0;strokeWidth=1;labelBackgroundColor=none;fillColor=#21C0A5;strokeColor=#006658;fontColor=#000000;fontFamily=Verdana;labelBorderColor=none;textShadow=1;html=1;spacingTop=3;spacing=3;spacingLeft=10;" vertex="1" parent="WIyWlLk6GJQsqaUBKTNV-1">
          <mxGeometry x="1010" y="680" width="200" height="180" as="geometry">
            <mxRectangle x="120" y="360" width="160" height="26" as="alternateBounds" />
          </mxGeometry>
        </mxCell>
        <mxCell id="jX0K1Ipz3QZNNp4KO0iQ-73" value="reservationID: int&lt;br&gt;timeOfReservation: datetime&lt;br&gt;peopleCount: int&lt;br&gt;status: ReserveStatus&lt;br&gt;notes: string&lt;br&gt;checkinTime: date&lt;br&gt;customer: Customer" style="text;align=left;verticalAlign=top;spacingLeft=10;spacingRight=4;overflow=hidden;rotatable=0;points=[[0,0.5],[1,0.5]];portConstraint=eastwest;fontStyle=3;labelBackgroundColor=none;fontColor=#000000;rounded=1;fontFamily=Verdana;labelBorderColor=none;textShadow=1;html=1;spacingTop=3;spacing=3;" vertex="1" parent="jX0K1Ipz3QZNNp4KO0iQ-72">
          <mxGeometry y="26" width="200" height="114" as="geometry" />
        </mxCell>
        <mxCell id="jX0K1Ipz3QZNNp4KO0iQ-74" value="addReservation(): bool" style="rounded=1;align=left;fontStyle=3;labelBackgroundColor=none;fillColor=#009999;strokeColor=#CCFFFF;fontColor=#000000;fontFamily=Verdana;labelBorderColor=none;textShadow=1;html=1;spacingTop=3;spacing=3;spacingLeft=10;" vertex="1" parent="jX0K1Ipz3QZNNp4KO0iQ-72">
          <mxGeometry y="140" width="200" height="40" as="geometry" />
        </mxCell>
        <mxCell id="jX0K1Ipz3QZNNp4KO0iQ-75" value="Payment" style="swimlane;fontStyle=3;align=center;verticalAlign=top;childLayout=stackLayout;horizontal=1;startSize=26;horizontalStack=0;resizeParent=1;resizeLast=0;collapsible=1;marginBottom=0;rounded=1;shadow=0;strokeWidth=1;labelBackgroundColor=none;fillColor=#21C0A5;strokeColor=#006658;fontColor=#000000;fontFamily=Verdana;labelBorderColor=none;textShadow=1;html=1;spacingTop=3;spacing=3;spacingLeft=10;" vertex="1" parent="WIyWlLk6GJQsqaUBKTNV-1">
          <mxGeometry x="73.5" y="1054" width="213" height="128" as="geometry">
            <mxRectangle x="120" y="360" width="160" height="26" as="alternateBounds" />
          </mxGeometry>
        </mxCell>
        <mxCell id="jX0K1Ipz3QZNNp4KO0iQ-76" value="paymentID: int&lt;br&gt;amount: double&lt;br&gt;creationDate: date" style="text;align=left;verticalAlign=top;spacingLeft=10;spacingRight=4;overflow=hidden;rotatable=0;points=[[0,0.5],[1,0.5]];portConstraint=eastwest;fontStyle=3;labelBackgroundColor=none;fontColor=#000000;rounded=1;fontFamily=Verdana;labelBorderColor=none;textShadow=1;html=1;spacingTop=3;spacing=3;" vertex="1" parent="jX0K1Ipz3QZNNp4KO0iQ-75">
          <mxGeometry y="26" width="213" height="54" as="geometry" />
        </mxCell>
        <mxCell id="jX0K1Ipz3QZNNp4KO0iQ-77" value="intiateTrancsaction(): bool" style="rounded=1;align=left;fontStyle=3;labelBackgroundColor=none;fillColor=#009999;strokeColor=#CCFFFF;fontColor=#000000;fontFamily=Verdana;labelBorderColor=none;textShadow=1;html=1;spacingTop=3;spacing=3;spacingLeft=10;" vertex="1" parent="jX0K1Ipz3QZNNp4KO0iQ-75">
          <mxGeometry y="80" width="213" height="30" as="geometry" />
        </mxCell>
        <mxCell id="jX0K1Ipz3QZNNp4KO0iQ-78" value="Meal" style="swimlane;fontStyle=3;align=center;verticalAlign=top;childLayout=stackLayout;horizontal=1;startSize=26;horizontalStack=0;resizeParent=1;resizeLast=0;collapsible=1;marginBottom=0;rounded=1;shadow=0;strokeWidth=1;labelBackgroundColor=none;fillColor=#21C0A5;strokeColor=#006658;fontColor=#000000;fontFamily=Verdana;labelBorderColor=none;textShadow=1;html=1;spacingTop=3;spacing=3;spacingLeft=10;" vertex="1" parent="WIyWlLk6GJQsqaUBKTNV-1">
          <mxGeometry x="430" y="1010" width="160" height="110" as="geometry">
            <mxRectangle x="120" y="360" width="160" height="26" as="alternateBounds" />
          </mxGeometry>
        </mxCell>
        <mxCell id="jX0K1Ipz3QZNNp4KO0iQ-79" value="mealID: int&lt;br&gt;" style="text;align=left;verticalAlign=top;spacingLeft=10;spacingRight=4;overflow=hidden;rotatable=0;points=[[0,0.5],[1,0.5]];portConstraint=eastwest;fontStyle=3;labelBackgroundColor=none;fontColor=#000000;rounded=1;fontFamily=Verdana;labelBorderColor=none;textShadow=1;html=1;spacingTop=3;spacing=3;" vertex="1" parent="jX0K1Ipz3QZNNp4KO0iQ-78">
          <mxGeometry y="26" width="160" height="54" as="geometry" />
        </mxCell>
        <mxCell id="jX0K1Ipz3QZNNp4KO0iQ-80" value="addMealitem(): bool" style="rounded=1;align=left;fontStyle=3;labelBackgroundColor=none;fillColor=#009999;strokeColor=#CCFFFF;fontColor=#000000;fontFamily=Verdana;labelBorderColor=none;textShadow=1;html=1;spacingTop=3;spacing=3;spacingLeft=10;" vertex="1" parent="jX0K1Ipz3QZNNp4KO0iQ-78">
          <mxGeometry y="80" width="160" height="30" as="geometry" />
        </mxCell>
        <mxCell id="jX0K1Ipz3QZNNp4KO0iQ-81" value="TableSeat" style="swimlane;fontStyle=3;align=center;verticalAlign=top;childLayout=stackLayout;horizontal=1;startSize=26;horizontalStack=0;resizeParent=1;resizeLast=0;collapsible=1;marginBottom=0;rounded=1;shadow=0;strokeWidth=1;labelBackgroundColor=none;fillColor=#21C0A5;strokeColor=#006658;fontColor=#000000;fontFamily=Verdana;labelBorderColor=none;textShadow=1;html=1;spacingTop=3;spacing=3;spacingLeft=10;" vertex="1" parent="WIyWlLk6GJQsqaUBKTNV-1">
          <mxGeometry x="730" y="1010" width="194" height="112" as="geometry">
            <mxRectangle x="120" y="360" width="160" height="26" as="alternateBounds" />
          </mxGeometry>
        </mxCell>
        <mxCell id="jX0K1Ipz3QZNNp4KO0iQ-82" value="tableSeatNumber: int&lt;br&gt;type: SeatType" style="text;align=left;verticalAlign=top;spacingLeft=10;spacingRight=4;overflow=hidden;rotatable=0;points=[[0,0.5],[1,0.5]];portConstraint=eastwest;fontStyle=3;labelBackgroundColor=none;fontColor=#000000;rounded=1;fontFamily=Verdana;labelBorderColor=none;textShadow=1;html=1;spacingTop=3;spacing=3;" vertex="1" parent="jX0K1Ipz3QZNNp4KO0iQ-81">
          <mxGeometry y="26" width="194" height="54" as="geometry" />
        </mxCell>
        <mxCell id="jX0K1Ipz3QZNNp4KO0iQ-83" value="updateSeatType(): bool" style="rounded=1;align=left;fontStyle=3;labelBackgroundColor=none;fillColor=#009999;strokeColor=#CCFFFF;fontColor=#000000;fontFamily=Verdana;labelBorderColor=none;textShadow=1;html=1;spacingTop=3;spacing=3;spacingLeft=10;" vertex="1" parent="jX0K1Ipz3QZNNp4KO0iQ-81">
          <mxGeometry y="80" width="194" height="30" as="geometry" />
        </mxCell>
        <mxCell id="jX0K1Ipz3QZNNp4KO0iQ-84" value="Notification" style="swimlane;fontStyle=3;align=center;verticalAlign=top;childLayout=stackLayout;horizontal=1;startSize=26;horizontalStack=0;resizeParent=1;resizeLast=0;collapsible=1;marginBottom=0;rounded=1;shadow=0;strokeWidth=1;labelBackgroundColor=none;fillColor=#21C0A5;strokeColor=#006658;fontColor=#000000;fontFamily=Verdana;labelBorderColor=none;textShadow=1;html=1;spacingTop=3;spacing=3;spacingLeft=10;" vertex="1" parent="WIyWlLk6GJQsqaUBKTNV-1">
          <mxGeometry x="1030" y="910" width="160" height="110" as="geometry">
            <mxRectangle x="120" y="360" width="160" height="26" as="alternateBounds" />
          </mxGeometry>
        </mxCell>
        <mxCell id="jX0K1Ipz3QZNNp4KO0iQ-85" value="notificationID: int&lt;br&gt;createdOn: date&lt;br&gt;content: string" style="text;align=left;verticalAlign=top;spacingLeft=10;spacingRight=4;overflow=hidden;rotatable=0;points=[[0,0.5],[1,0.5]];portConstraint=eastwest;fontStyle=3;labelBackgroundColor=none;fontColor=#000000;rounded=1;fontFamily=Verdana;labelBorderColor=none;textShadow=1;html=1;spacingTop=3;spacing=3;" vertex="1" parent="jX0K1Ipz3QZNNp4KO0iQ-84">
          <mxGeometry y="26" width="160" height="54" as="geometry" />
        </mxCell>
        <mxCell id="jX0K1Ipz3QZNNp4KO0iQ-86" value="send(): bool" style="rounded=1;align=left;fontStyle=3;labelBackgroundColor=none;fillColor=#009999;strokeColor=#CCFFFF;fontColor=#000000;fontFamily=Verdana;labelBorderColor=none;textShadow=1;html=1;spacingTop=3;spacing=3;spacingLeft=10;" vertex="1" parent="jX0K1Ipz3QZNNp4KO0iQ-84">
          <mxGeometry y="80" width="160" height="30" as="geometry" />
        </mxCell>
        <mxCell id="jX0K1Ipz3QZNNp4KO0iQ-87" value="MenuItem" style="swimlane;fontStyle=3;align=center;verticalAlign=top;childLayout=stackLayout;horizontal=1;startSize=26;horizontalStack=0;resizeParent=1;resizeLast=0;collapsible=1;marginBottom=0;rounded=1;shadow=0;strokeWidth=1;labelBackgroundColor=none;fillColor=#21C0A5;strokeColor=#006658;fontColor=#000000;fontFamily=Verdana;labelBorderColor=none;textShadow=1;html=1;spacingTop=3;spacing=3;spacingLeft=10;" vertex="1" parent="WIyWlLk6GJQsqaUBKTNV-1">
          <mxGeometry x="430" y="1220" width="160" height="140" as="geometry">
            <mxRectangle x="120" y="360" width="160" height="26" as="alternateBounds" />
          </mxGeometry>
        </mxCell>
        <mxCell id="jX0K1Ipz3QZNNp4KO0iQ-88" value="menuItemID: int&lt;br&gt;title: string&lt;br&gt;description: string&lt;br&gt;price: double" style="text;align=left;verticalAlign=top;spacingLeft=10;spacingRight=4;overflow=hidden;rotatable=0;points=[[0,0.5],[1,0.5]];portConstraint=eastwest;fontStyle=3;labelBackgroundColor=none;fontColor=#000000;rounded=1;fontFamily=Verdana;labelBorderColor=none;textShadow=1;html=1;spacingTop=3;spacing=3;" vertex="1" parent="jX0K1Ipz3QZNNp4KO0iQ-87">
          <mxGeometry y="26" width="160" height="84" as="geometry" />
        </mxCell>
        <mxCell id="jX0K1Ipz3QZNNp4KO0iQ-89" value="addMealitem(): bool" style="rounded=1;align=left;fontStyle=3;labelBackgroundColor=none;fillColor=#009999;strokeColor=#CCFFFF;fontColor=#000000;fontFamily=Verdana;labelBorderColor=none;textShadow=1;html=1;spacingTop=3;spacing=3;spacingLeft=10;" vertex="1" parent="jX0K1Ipz3QZNNp4KO0iQ-87">
          <mxGeometry y="110" width="160" height="30" as="geometry" />
        </mxCell>
        <mxCell id="jX0K1Ipz3QZNNp4KO0iQ-91" value="MealItem" style="swimlane;fontStyle=3;align=center;verticalAlign=top;childLayout=stackLayout;horizontal=1;startSize=26;horizontalStack=0;resizeParent=1;resizeLast=0;collapsible=1;marginBottom=0;rounded=1;shadow=0;strokeWidth=1;labelBackgroundColor=none;fillColor=#21C0A5;strokeColor=#006658;fontColor=#000000;fontFamily=Verdana;labelBorderColor=none;textShadow=1;html=1;spacingTop=3;spacing=3;spacingLeft=10;" vertex="1" parent="WIyWlLk6GJQsqaUBKTNV-1">
          <mxGeometry x="730" y="1226" width="181" height="147" as="geometry">
            <mxRectangle x="120" y="360" width="160" height="26" as="alternateBounds" />
          </mxGeometry>
        </mxCell>
        <mxCell id="jX0K1Ipz3QZNNp4KO0iQ-92" value="mealItemID: int&lt;br&gt;quantity: int" style="text;align=left;verticalAlign=top;spacingLeft=10;spacingRight=4;overflow=hidden;rotatable=0;points=[[0,0.5],[1,0.5]];portConstraint=eastwest;fontStyle=3;labelBackgroundColor=none;fontColor=#000000;rounded=1;fontFamily=Verdana;labelBorderColor=none;textShadow=1;html=1;spacingTop=3;spacing=3;" vertex="1" parent="jX0K1Ipz3QZNNp4KO0iQ-91">
          <mxGeometry y="26" width="181" height="84" as="geometry" />
        </mxCell>
        <mxCell id="jX0K1Ipz3QZNNp4KO0iQ-93" value="updateQuantity(): bool" style="rounded=1;align=left;fontStyle=3;labelBackgroundColor=none;fillColor=#009999;strokeColor=#CCFFFF;fontColor=#000000;fontFamily=Verdana;labelBorderColor=none;textShadow=1;html=1;spacingTop=3;spacing=3;spacingLeft=10;" vertex="1" parent="jX0K1Ipz3QZNNp4KO0iQ-91">
          <mxGeometry y="110" width="181" height="37" as="geometry" />
        </mxCell>
        <mxCell id="jX0K1Ipz3QZNNp4KO0iQ-94" value="PostalNotification" style="swimlane;fontStyle=3;align=center;verticalAlign=top;childLayout=stackLayout;horizontal=1;startSize=26;horizontalStack=0;resizeParent=1;resizeLast=0;collapsible=1;marginBottom=0;rounded=1;shadow=0;strokeWidth=1;labelBackgroundColor=none;fillColor=#21C0A5;strokeColor=#006658;fontColor=#000000;fontFamily=Verdana;labelBorderColor=none;textShadow=1;html=1;spacingTop=3;spacing=3;spacingLeft=10;" vertex="1" parent="WIyWlLk6GJQsqaUBKTNV-1">
          <mxGeometry x="1030" y="1070" width="160" height="60" as="geometry">
            <mxRectangle x="120" y="360" width="160" height="26" as="alternateBounds" />
          </mxGeometry>
        </mxCell>
        <mxCell id="jX0K1Ipz3QZNNp4KO0iQ-95" value="phone: string" style="text;align=left;verticalAlign=top;spacingLeft=10;spacingRight=4;overflow=hidden;rotatable=0;points=[[0,0.5],[1,0.5]];portConstraint=eastwest;fontStyle=3;labelBackgroundColor=none;fontColor=#000000;rounded=1;fontFamily=Verdana;labelBorderColor=none;textShadow=1;html=1;spacingTop=3;spacing=3;" vertex="1" parent="jX0K1Ipz3QZNNp4KO0iQ-94">
          <mxGeometry y="26" width="160" height="34" as="geometry" />
        </mxCell>
        <mxCell id="jX0K1Ipz3QZNNp4KO0iQ-100" value="EmailNotification" style="swimlane;fontStyle=3;align=center;verticalAlign=top;childLayout=stackLayout;horizontal=1;startSize=26;horizontalStack=0;resizeParent=1;resizeLast=0;collapsible=1;marginBottom=0;rounded=1;shadow=0;strokeWidth=1;labelBackgroundColor=none;fillColor=#21C0A5;strokeColor=#006658;fontColor=#000000;fontFamily=Verdana;labelBorderColor=none;textShadow=1;html=1;spacingTop=3;spacing=3;spacingLeft=10;" vertex="1" parent="WIyWlLk6GJQsqaUBKTNV-1">
          <mxGeometry x="1030" y="1170" width="160" height="60" as="geometry">
            <mxRectangle x="120" y="360" width="160" height="26" as="alternateBounds" />
          </mxGeometry>
        </mxCell>
        <mxCell id="jX0K1Ipz3QZNNp4KO0iQ-101" value="email: string" style="text;align=left;verticalAlign=top;spacingLeft=10;spacingRight=4;overflow=hidden;rotatable=0;points=[[0,0.5],[1,0.5]];portConstraint=eastwest;fontStyle=3;labelBackgroundColor=none;fontColor=#000000;rounded=1;fontFamily=Verdana;labelBorderColor=none;textShadow=1;html=1;spacingTop=3;spacing=3;" vertex="1" parent="jX0K1Ipz3QZNNp4KO0iQ-100">
          <mxGeometry y="26" width="160" height="34" as="geometry" />
        </mxCell>
        <mxCell id="jX0K1Ipz3QZNNp4KO0iQ-102" value="CreditCardTransaction" style="swimlane;fontStyle=3;align=center;verticalAlign=top;childLayout=stackLayout;horizontal=1;startSize=26;horizontalStack=0;resizeParent=1;resizeLast=0;collapsible=1;marginBottom=0;rounded=1;shadow=0;strokeWidth=1;labelBackgroundColor=none;fillColor=#21C0A5;strokeColor=#006658;fontColor=#000000;fontFamily=Verdana;labelBorderColor=none;textShadow=1;html=1;spacingTop=3;spacing=3;spacingLeft=10;" vertex="1" parent="WIyWlLk6GJQsqaUBKTNV-1">
          <mxGeometry x="100" y="1205" width="160" height="60" as="geometry">
            <mxRectangle x="120" y="360" width="160" height="26" as="alternateBounds" />
          </mxGeometry>
        </mxCell>
        <mxCell id="jX0K1Ipz3QZNNp4KO0iQ-103" value="nameOnCard: string" style="text;align=left;verticalAlign=top;spacingLeft=10;spacingRight=4;overflow=hidden;rotatable=0;points=[[0,0.5],[1,0.5]];portConstraint=eastwest;fontStyle=3;labelBackgroundColor=none;fontColor=#000000;rounded=1;fontFamily=Verdana;labelBorderColor=none;textShadow=1;html=1;spacingTop=3;spacing=3;" vertex="1" parent="jX0K1Ipz3QZNNp4KO0iQ-102">
          <mxGeometry y="26" width="160" height="34" as="geometry" />
        </mxCell>
        <mxCell id="jX0K1Ipz3QZNNp4KO0iQ-105" value="CheckTransaction" style="swimlane;fontStyle=3;align=center;verticalAlign=top;childLayout=stackLayout;horizontal=1;startSize=26;horizontalStack=0;resizeParent=1;resizeLast=0;collapsible=1;marginBottom=0;rounded=1;shadow=0;strokeWidth=1;labelBackgroundColor=none;fillColor=#21C0A5;strokeColor=#006658;fontColor=#000000;fontFamily=Verdana;labelBorderColor=none;textShadow=1;html=1;spacingTop=3;spacing=3;spacingLeft=10;" vertex="1" parent="WIyWlLk6GJQsqaUBKTNV-1">
          <mxGeometry x="100" y="1300" width="160" height="90" as="geometry">
            <mxRectangle x="120" y="360" width="160" height="26" as="alternateBounds" />
          </mxGeometry>
        </mxCell>
        <mxCell id="jX0K1Ipz3QZNNp4KO0iQ-106" value="bankName: string&lt;br&gt;checkNumber: string" style="text;align=left;verticalAlign=top;spacingLeft=10;spacingRight=4;overflow=hidden;rotatable=0;points=[[0,0.5],[1,0.5]];portConstraint=eastwest;fontStyle=3;labelBackgroundColor=none;fontColor=#000000;rounded=1;fontFamily=Verdana;labelBorderColor=none;textShadow=1;html=1;spacingTop=3;spacing=3;" vertex="1" parent="jX0K1Ipz3QZNNp4KO0iQ-105">
          <mxGeometry y="26" width="160" height="64" as="geometry" />
        </mxCell>
        <mxCell id="jX0K1Ipz3QZNNp4KO0iQ-107" value="CashTransacltion" style="swimlane;fontStyle=3;align=center;verticalAlign=top;childLayout=stackLayout;horizontal=1;startSize=26;horizontalStack=0;resizeParent=1;resizeLast=0;collapsible=1;marginBottom=0;rounded=1;shadow=0;strokeWidth=1;labelBackgroundColor=none;fillColor=#21C0A5;strokeColor=#006658;fontColor=#000000;fontFamily=Verdana;labelBorderColor=none;textShadow=1;html=1;spacingTop=3;spacing=3;spacingLeft=10;" vertex="1" parent="WIyWlLk6GJQsqaUBKTNV-1">
          <mxGeometry x="100" y="1420" width="174" height="63" as="geometry">
            <mxRectangle x="120" y="360" width="160" height="26" as="alternateBounds" />
          </mxGeometry>
        </mxCell>
        <mxCell id="jX0K1Ipz3QZNNp4KO0iQ-108" value="cashTendered: double" style="text;align=left;verticalAlign=top;spacingLeft=10;spacingRight=4;overflow=hidden;rotatable=0;points=[[0,0.5],[1,0.5]];portConstraint=eastwest;fontStyle=3;labelBackgroundColor=none;fontColor=#000000;rounded=1;fontFamily=Verdana;labelBorderColor=none;textShadow=1;html=1;spacingTop=3;spacing=3;" vertex="1" parent="jX0K1Ipz3QZNNp4KO0iQ-107">
          <mxGeometry y="26" width="174" height="37" as="geometry" />
        </mxCell>
        <mxCell id="jX0K1Ipz3QZNNp4KO0iQ-111" value="Menu" style="swimlane;fontStyle=3;align=center;verticalAlign=top;childLayout=stackLayout;horizontal=1;startSize=26;horizontalStack=0;resizeParent=1;resizeLast=0;collapsible=1;marginBottom=0;rounded=1;shadow=0;strokeWidth=1;labelBackgroundColor=none;fillColor=#21C0A5;strokeColor=#006658;fontColor=#000000;fontFamily=Verdana;labelBorderColor=none;textShadow=1;html=1;spacingTop=3;spacing=3;spacingLeft=10;" vertex="1" parent="WIyWlLk6GJQsqaUBKTNV-1">
          <mxGeometry x="110" y="1520" width="183" height="151" as="geometry">
            <mxRectangle x="120" y="360" width="160" height="26" as="alternateBounds" />
          </mxGeometry>
        </mxCell>
        <mxCell id="jX0K1Ipz3QZNNp4KO0iQ-154" value="" style="endArrow=none;rounded=1;fontFamily=Verdana;fontSize=12;fontColor=#000000;fontStyle=3;exitX=0;exitY=1;exitDx=0;exitDy=0;labelBackgroundColor=none;strokeColor=#006658;labelBorderColor=none;textShadow=1;html=1;spacingTop=3;spacing=3;spacingLeft=10;" edge="1" parent="jX0K1Ipz3QZNNp4KO0iQ-111" target="jX0K1Ipz3QZNNp4KO0iQ-2">
          <mxGeometry width="50" height="50" relative="1" as="geometry">
            <mxPoint y="76" as="sourcePoint" />
            <mxPoint x="80" y="-1230" as="targetPoint" />
            <Array as="points">
              <mxPoint x="-70" y="76" />
              <mxPoint x="-80" y="-540" />
              <mxPoint x="-70" y="-1170" />
            </Array>
          </mxGeometry>
        </mxCell>
        <mxCell id="jX0K1Ipz3QZNNp4KO0iQ-155" value="" style="edgeLabel;align=center;verticalAlign=middle;resizable=0;points=[];rounded=1;shadow=0;strokeWidth=1;fontFamily=Verdana;fontSize=12;fontStyle=3;labelBackgroundColor=none;fontColor=#000000;labelBorderColor=none;textShadow=1;html=1;spacingTop=3;spacing=3;spacingLeft=10;" vertex="1" connectable="0" parent="jX0K1Ipz3QZNNp4KO0iQ-154">
          <mxGeometry x="0.8092" y="-4" relative="1" as="geometry">
            <mxPoint as="offset" />
          </mxGeometry>
        </mxCell>
        <mxCell id="jX0K1Ipz3QZNNp4KO0iQ-112" value="menuID: int&lt;br&gt;title: string&lt;br&gt;descrition: string&amp;nbsp;" style="text;align=left;verticalAlign=top;spacingLeft=10;spacingRight=4;overflow=hidden;rotatable=0;points=[[0,0.5],[1,0.5]];portConstraint=eastwest;fontStyle=3;labelBackgroundColor=none;fontColor=#000000;rounded=1;fontFamily=Verdana;labelBorderColor=none;textShadow=1;html=1;spacingTop=3;spacing=3;" vertex="1" parent="jX0K1Ipz3QZNNp4KO0iQ-111">
          <mxGeometry y="26" width="183" height="84" as="geometry" />
        </mxCell>
        <mxCell id="jX0K1Ipz3QZNNp4KO0iQ-113" value="addMenuSection(): bool" style="rounded=1;align=left;fontStyle=3;labelBackgroundColor=none;fillColor=#009999;strokeColor=#006658;fontColor=#000000;fontFamily=Verdana;labelBorderColor=none;textShadow=1;html=1;spacingTop=3;spacing=3;spacingLeft=10;" vertex="1" parent="jX0K1Ipz3QZNNp4KO0iQ-111">
          <mxGeometry y="110" width="183" height="30" as="geometry" />
        </mxCell>
        <mxCell id="jX0K1Ipz3QZNNp4KO0iQ-114" value="MenuSection" style="swimlane;fontStyle=3;align=center;verticalAlign=top;childLayout=stackLayout;horizontal=1;startSize=26;horizontalStack=0;resizeParent=1;resizeLast=0;collapsible=1;marginBottom=0;rounded=1;shadow=0;strokeWidth=1;labelBackgroundColor=none;fillColor=#21C0A5;strokeColor=#006658;fontColor=#000000;fontFamily=Verdana;labelBorderColor=none;textShadow=1;html=1;spacingTop=3;spacing=3;spacingLeft=10;" vertex="1" parent="WIyWlLk6GJQsqaUBKTNV-1">
          <mxGeometry x="430" y="1480" width="174" height="144" as="geometry">
            <mxRectangle x="120" y="360" width="160" height="26" as="alternateBounds" />
          </mxGeometry>
        </mxCell>
        <mxCell id="jX0K1Ipz3QZNNp4KO0iQ-115" value="menuSectionID: int&lt;br&gt;title: string&amp;nbsp;&amp;nbsp;&amp;nbsp;&lt;br&gt;description: string" style="text;align=left;verticalAlign=top;spacingLeft=10;spacingRight=4;overflow=hidden;rotatable=0;points=[[0,0.5],[1,0.5]];portConstraint=eastwest;fontStyle=3;labelBackgroundColor=none;fontColor=#000000;rounded=1;fontFamily=Verdana;labelBorderColor=none;textShadow=1;html=1;spacingTop=3;spacing=3;" vertex="1" parent="jX0K1Ipz3QZNNp4KO0iQ-114">
          <mxGeometry y="26" width="174" height="84" as="geometry" />
        </mxCell>
        <mxCell id="jX0K1Ipz3QZNNp4KO0iQ-116" value="addMenuItem(): bool" style="rounded=1;align=left;fontStyle=3;labelBackgroundColor=none;fillColor=#009999;strokeColor=#006658;fontColor=#000000;fontFamily=Verdana;labelBorderColor=none;textShadow=1;html=1;spacingTop=3;spacing=3;spacingLeft=10;" vertex="1" parent="jX0K1Ipz3QZNNp4KO0iQ-114">
          <mxGeometry y="110" width="174" height="30" as="geometry" />
        </mxCell>
        <mxCell id="jX0K1Ipz3QZNNp4KO0iQ-117" value="" style="endArrow=classic;rounded=1;fontFamily=Verdana;fontSize=12;fontColor=#000000;fontStyle=3;entryX=0.521;entryY=1.141;entryDx=0;entryDy=0;entryPerimeter=0;exitX=0.5;exitY=0;exitDx=0;exitDy=0;labelBackgroundColor=none;strokeColor=#006658;labelBorderColor=none;textShadow=1;html=1;spacingTop=3;spacing=3;spacingLeft=10;" edge="1" parent="WIyWlLk6GJQsqaUBKTNV-1">
          <mxGeometry width="50" height="50" relative="1" as="geometry">
            <mxPoint x="184" y="290.5" as="sourcePoint" />
            <mxPoint x="187.3599999999999" y="142.51199999999994" as="targetPoint" />
          </mxGeometry>
        </mxCell>
        <mxCell id="jX0K1Ipz3QZNNp4KO0iQ-124" value="" style="group;labelBackgroundColor=none;fontColor=#000000;rounded=1;fontFamily=Verdana;labelBorderColor=none;textShadow=1;html=1;spacingTop=3;spacing=3;spacingLeft=10;fontStyle=2" vertex="1" connectable="0" parent="WIyWlLk6GJQsqaUBKTNV-1">
          <mxGeometry x="680" y="300" width="180" height="75" as="geometry" />
        </mxCell>
        <mxCell id="jX0K1Ipz3QZNNp4KO0iQ-16" value="Employee" style="swimlane;fontStyle=3;align=center;verticalAlign=top;childLayout=stackLayout;horizontal=1;startSize=26;horizontalStack=0;resizeParent=1;resizeLast=0;collapsible=1;marginBottom=0;rounded=1;shadow=0;strokeWidth=1;labelBackgroundColor=none;fillColor=#21C0A5;strokeColor=#006658;fontColor=#000000;fontFamily=Verdana;labelBorderColor=none;textShadow=1;html=1;spacingTop=3;spacing=3;spacingLeft=10;" vertex="1" parent="jX0K1Ipz3QZNNp4KO0iQ-124">
          <mxGeometry x="10" y="12" width="160" height="75" as="geometry">
            <mxRectangle x="120" y="360" width="160" height="26" as="alternateBounds" />
          </mxGeometry>
        </mxCell>
        <mxCell id="jX0K1Ipz3QZNNp4KO0iQ-17" value="employeeID: int&lt;br&gt;dateJoined: Date" style="text;align=left;verticalAlign=top;spacingLeft=10;spacingRight=4;overflow=hidden;rotatable=0;points=[[0,0.5],[1,0.5]];portConstraint=eastwest;fontStyle=3;labelBackgroundColor=none;fontColor=#000000;rounded=1;fontFamily=Verdana;labelBorderColor=none;textShadow=1;html=1;spacingTop=3;spacing=3;" vertex="1" parent="jX0K1Ipz3QZNNp4KO0iQ-16">
          <mxGeometry y="26" width="160" height="44" as="geometry" />
        </mxCell>
        <mxCell id="jX0K1Ipz3QZNNp4KO0iQ-239" value="" style="endArrow=classic;rounded=1;fontFamily=Verdana;fontSize=12;fontColor=#000000;fontStyle=3;labelBackgroundColor=none;strokeColor=#006658;entryX=0.563;entryY=1.005;entryDx=0;entryDy=0;entryPerimeter=0;labelBorderColor=none;textShadow=1;html=1;spacingTop=3;spacing=3;spacingLeft=10;" edge="1" parent="jX0K1Ipz3QZNNp4KO0iQ-16" source="jX0K1Ipz3QZNNp4KO0iQ-240">
          <mxGeometry width="50" height="50" relative="1" as="geometry">
            <mxPoint x="193.73000000000002" y="120.0800000000001" as="sourcePoint" />
            <mxPoint x="87" y="70.91000000000003" as="targetPoint" />
            <Array as="points">
              <mxPoint x="87.91999999999996" y="81.69" />
            </Array>
          </mxGeometry>
        </mxCell>
        <mxCell id="jX0K1Ipz3QZNNp4KO0iQ-247" value="" style="edgeStyle=elbowEdgeStyle;rounded=1;orthogonalLoop=1;jettySize=auto;strokeColor=#006658;fontColor=#000000;fillColor=#21C0A5;fontFamily=Verdana;labelBorderColor=none;labelBackgroundColor=none;textShadow=1;html=1;spacingTop=3;spacing=3;spacingLeft=10;fontStyle=2" edge="1" parent="jX0K1Ipz3QZNNp4KO0iQ-16">
          <mxGeometry relative="1" as="geometry">
            <mxPoint x="87" y="114" as="sourcePoint" />
            <mxPoint x="87" y="70" as="targetPoint" />
          </mxGeometry>
        </mxCell>
        <mxCell id="jX0K1Ipz3QZNNp4KO0iQ-193" value="*" style="text;align=center;verticalAlign=middle;resizable=0;points=[];autosize=1;strokeColor=none;fillColor=none;fontColor=#000000;fontFamily=Verdana;labelBorderColor=none;labelBackgroundColor=none;rounded=1;textShadow=1;html=1;spacingTop=3;spacing=3;spacingLeft=10;fontStyle=2" vertex="1" parent="jX0K1Ipz3QZNNp4KO0iQ-124">
          <mxGeometry x="27" y="-7" width="36" height="29" as="geometry" />
        </mxCell>
        <mxCell id="jX0K1Ipz3QZNNp4KO0iQ-126" value="" style="endArrow=classic;rounded=1;fontFamily=Verdana;fontSize=12;fontColor=#000000;fontStyle=3;entryX=1;entryY=0.5;entryDx=0;entryDy=0;exitX=-0.017;exitY=0.642;exitDx=0;exitDy=0;exitPerimeter=0;labelBackgroundColor=none;strokeColor=#006658;labelBorderColor=none;textShadow=1;html=1;spacingTop=3;spacing=3;spacingLeft=10;" edge="1" parent="WIyWlLk6GJQsqaUBKTNV-1" source="jX0K1Ipz3QZNNp4KO0iQ-42" target="jX0K1Ipz3QZNNp4KO0iQ-17">
          <mxGeometry width="50" height="50" relative="1" as="geometry">
            <mxPoint x="390" y="300" as="sourcePoint" />
            <mxPoint x="440" y="250" as="targetPoint" />
          </mxGeometry>
        </mxCell>
        <mxCell id="jX0K1Ipz3QZNNp4KO0iQ-127" value="" style="endArrow=classic;rounded=1;fontFamily=Verdana;fontSize=12;fontColor=#000000;fontStyle=3;exitX=0.25;exitY=0;exitDx=0;exitDy=0;entryX=0.638;entryY=-0.002;entryDx=0;entryDy=0;labelBackgroundColor=none;strokeColor=#006658;labelBorderColor=none;textShadow=1;html=1;spacingTop=3;spacing=3;spacingLeft=10;entryPerimeter=0;" edge="1" parent="WIyWlLk6GJQsqaUBKTNV-1" target="jX0K1Ipz3QZNNp4KO0iQ-2">
          <mxGeometry width="50" height="50" relative="1" as="geometry">
            <mxPoint x="723" y="314" as="sourcePoint" />
            <mxPoint x="237" y="294.5" as="targetPoint" />
            <Array as="points">
              <mxPoint x="723" y="224" />
              <mxPoint x="223" y="224" />
            </Array>
          </mxGeometry>
        </mxCell>
        <mxCell id="jX0K1Ipz3QZNNp4KO0iQ-128" value="Chef" style="swimlane;fontStyle=3;align=center;verticalAlign=top;childLayout=stackLayout;horizontal=1;startSize=26;horizontalStack=0;resizeParent=1;resizeLast=0;collapsible=1;marginBottom=0;rounded=1;shadow=0;strokeWidth=1;points=[[0,0,0,0,0],[0,0.25,0,0,0],[0,0.5,0,0,0],[0,0.75,0,0,0],[0,1,0,0,0],[0.25,0,0,0,0],[0.25,1,0,0,0],[0.5,0,0,0,0],[0.5,1,0,0,0],[0.75,0,0,0,0],[0.75,1,0,0,0],[1,0,0,0,0],[1,0.25,0,0,0],[1,0.5,0,0,0],[1,0.75,0,0,0],[1,1,0,0,0]];labelBackgroundColor=none;fillColor=#21C0A5;strokeColor=#006658;fontColor=#000000;fontFamily=Verdana;labelBorderColor=none;textShadow=1;html=1;spacingTop=3;spacing=3;spacingLeft=10;" vertex="1" parent="WIyWlLk6GJQsqaUBKTNV-1">
          <mxGeometry x="430" y="490" width="160" height="66" as="geometry">
            <mxRectangle x="120" y="360" width="160" height="26" as="alternateBounds" />
          </mxGeometry>
        </mxCell>
        <mxCell id="jX0K1Ipz3QZNNp4KO0iQ-129" value="takeorder(): bool" style="text;align=left;verticalAlign=top;spacingLeft=10;spacingRight=4;overflow=hidden;rotatable=0;points=[[0,0.5],[1,0.5]];portConstraint=eastwest;fontStyle=3;labelBackgroundColor=none;fontColor=#000000;rounded=1;fontFamily=Verdana;labelBorderColor=none;textShadow=1;html=1;spacingTop=3;spacing=3;" vertex="1" parent="jX0K1Ipz3QZNNp4KO0iQ-128">
          <mxGeometry y="26" width="160" height="40" as="geometry" />
        </mxCell>
        <mxCell id="jX0K1Ipz3QZNNp4KO0iQ-130" value="Waiter" style="swimlane;fontStyle=3;align=center;verticalAlign=top;childLayout=stackLayout;horizontal=1;startSize=26;horizontalStack=0;resizeParent=1;resizeLast=0;collapsible=1;marginBottom=0;rounded=1;shadow=0;strokeWidth=1;points=[[0,0,0,0,0],[0,0.25,0,0,0],[0,0.5,0,0,0],[0,0.75,0,0,0],[0,1,0,0,0],[0.25,0,0,0,0],[0.25,1,0,0,0],[0.5,0,0,0,0],[0.5,1,0,0,0],[0.75,0,0,0,0],[0.75,1,0,0,0],[1,0,0,0,0],[1,0.25,0,0,0],[1,0.5,0,0,0],[1,0.75,0,0,0],[1,1,0,0,0]];labelBackgroundColor=none;fillColor=#21C0A5;strokeColor=#006658;fontColor=#000000;fontFamily=Verdana;labelBorderColor=none;textShadow=1;html=1;spacingTop=3;spacing=3;spacingLeft=10;" vertex="1" parent="WIyWlLk6GJQsqaUBKTNV-1">
          <mxGeometry x="650" y="490" width="160" height="66" as="geometry">
            <mxRectangle x="120" y="360" width="160" height="26" as="alternateBounds" />
          </mxGeometry>
        </mxCell>
        <mxCell id="jX0K1Ipz3QZNNp4KO0iQ-131" value="createorder(): bool" style="text;align=left;verticalAlign=top;spacingLeft=10;spacingRight=4;overflow=hidden;rotatable=0;points=[[0,0.5],[1,0.5]];portConstraint=eastwest;fontStyle=3;labelBackgroundColor=none;fontColor=#000000;rounded=1;fontFamily=Verdana;labelBorderColor=none;textShadow=1;html=1;spacingTop=3;spacing=3;" vertex="1" parent="jX0K1Ipz3QZNNp4KO0iQ-130">
          <mxGeometry y="26" width="160" height="40" as="geometry" />
        </mxCell>
        <mxCell id="jX0K1Ipz3QZNNp4KO0iQ-132" value="Receptionist" style="swimlane;fontStyle=3;align=center;verticalAlign=top;childLayout=stackLayout;horizontal=1;startSize=26;horizontalStack=0;resizeParent=1;resizeLast=0;collapsible=1;marginBottom=0;rounded=1;shadow=0;strokeWidth=1;points=[[0,0,0,0,0],[0,0.25,0,0,0],[0,0.5,0,0,0],[0,0.75,0,0,0],[0,1,0,0,0],[0.25,0,0,0,0],[0.25,1,0,0,0],[0.5,0,0,0,0],[0.5,1,0,0,0],[0.75,0,0,0,0],[0.75,1,0,0,0],[1,0,0,0,0],[1,0.25,0,0,0],[1,0.5,0,0,0],[1,0.75,0,0,0],[1,1,0,0,0]];labelBackgroundColor=none;fillColor=#21C0A5;strokeColor=#006658;fontColor=#000000;fontFamily=Verdana;labelBorderColor=none;textShadow=1;html=1;spacingTop=3;spacing=3;spacingLeft=10;" vertex="1" parent="WIyWlLk6GJQsqaUBKTNV-1">
          <mxGeometry x="850" y="490" width="160" height="66" as="geometry">
            <mxRectangle x="120" y="360" width="160" height="26" as="alternateBounds" />
          </mxGeometry>
        </mxCell>
        <mxCell id="jX0K1Ipz3QZNNp4KO0iQ-133" value="createReservation(): bool" style="text;align=left;verticalAlign=top;spacingLeft=10;spacingRight=4;overflow=hidden;rotatable=0;points=[[0,0.5],[1,0.5]];portConstraint=eastwest;fontStyle=3;labelBackgroundColor=none;fontColor=#000000;rounded=1;fontFamily=Verdana;labelBorderColor=none;textShadow=1;html=1;spacingTop=3;spacing=3;" vertex="1" parent="jX0K1Ipz3QZNNp4KO0iQ-132">
          <mxGeometry y="26" width="160" height="40" as="geometry" />
        </mxCell>
        <mxCell id="jX0K1Ipz3QZNNp4KO0iQ-134" value="Manager" style="swimlane;fontStyle=3;align=center;verticalAlign=top;childLayout=stackLayout;horizontal=1;startSize=26;horizontalStack=0;resizeParent=1;resizeLast=0;collapsible=1;marginBottom=0;rounded=1;shadow=0;strokeWidth=1;points=[[0,0,0,0,0],[0,0.25,0,0,0],[0,0.5,0,0,0],[0,0.75,0,0,0],[0,1,0,0,0],[0.25,0,0,0,0],[0.25,1,0,0,0],[0.5,0,0,0,0],[0.5,1,0,0,0],[0.75,0,0,0,0],[0.75,1,0,0,0],[1,0,0,0,0],[1,0.25,0,0,0],[1,0.5,0,0,0],[1,0.75,0,0,0],[1,1,0,0,0]];labelBackgroundColor=none;fillColor=#21C0A5;strokeColor=#006658;fontColor=#000000;fontFamily=Verdana;labelBorderColor=none;textShadow=1;html=1;spacingTop=3;spacing=3;spacingLeft=10;" vertex="1" parent="WIyWlLk6GJQsqaUBKTNV-1">
          <mxGeometry x="1081" y="490" width="160" height="66" as="geometry">
            <mxRectangle x="120" y="360" width="160" height="26" as="alternateBounds" />
          </mxGeometry>
        </mxCell>
        <mxCell id="jX0K1Ipz3QZNNp4KO0iQ-135" value="addEmployee(): bool" style="text;align=left;verticalAlign=top;spacingLeft=10;spacingRight=4;overflow=hidden;rotatable=0;points=[[0,0.5],[1,0.5]];portConstraint=eastwest;fontStyle=3;labelBackgroundColor=none;fontColor=#000000;rounded=1;fontFamily=Verdana;labelBorderColor=none;textShadow=1;html=1;spacingTop=3;spacing=3;" vertex="1" parent="jX0K1Ipz3QZNNp4KO0iQ-134">
          <mxGeometry y="26" width="160" height="40" as="geometry" />
        </mxCell>
        <mxCell id="jX0K1Ipz3QZNNp4KO0iQ-136" value="Customer" style="swimlane;fontStyle=3;align=center;verticalAlign=top;childLayout=stackLayout;horizontal=1;startSize=26;horizontalStack=0;resizeParent=1;resizeLast=0;collapsible=1;marginBottom=0;rounded=1;shadow=0;strokeWidth=1;points=[[0,0,0,0,0],[0,0.25,0,0,0],[0,0.5,0,0,0],[0,0.75,0,0,0],[0,1,0,0,0],[0.25,0,0,0,0],[0.25,1,0,0,0],[0.5,0,0,0,0],[0.5,1,0,0,0],[0.75,0,0,0,0],[0.75,1,0,0,0],[1,0,0,0,0],[1,0.25,0,0,0],[1,0.5,0,0,0],[1,0.75,0,0,0],[1,1,0,0,0]];labelBackgroundColor=none;fillColor=#21C0A5;strokeColor=#006658;fontColor=#000000;fontFamily=Verdana;labelBorderColor=none;textShadow=1;html=1;spacingTop=3;spacing=3;spacingLeft=10;" vertex="1" parent="WIyWlLk6GJQsqaUBKTNV-1">
          <mxGeometry x="1280" y="490" width="160" height="66" as="geometry">
            <mxRectangle x="120" y="360" width="160" height="26" as="alternateBounds" />
          </mxGeometry>
        </mxCell>
        <mxCell id="jX0K1Ipz3QZNNp4KO0iQ-137" value="lastVisted: date" style="text;align=left;verticalAlign=top;spacingLeft=10;spacingRight=4;overflow=hidden;rotatable=0;points=[[0,0.5],[1,0.5]];portConstraint=eastwest;fontStyle=3;labelBackgroundColor=none;fontColor=#000000;rounded=1;fontFamily=Verdana;labelBorderColor=none;textShadow=1;html=1;spacingTop=3;spacing=3;" vertex="1" parent="jX0K1Ipz3QZNNp4KO0iQ-136">
          <mxGeometry y="26" width="160" height="40" as="geometry" />
        </mxCell>
        <mxCell id="jX0K1Ipz3QZNNp4KO0iQ-138" value="" style="endArrow=classic;rounded=1;fontFamily=Verdana;fontSize=12;fontColor=#000000;fontStyle=3;exitX=0;exitY=0.5;exitDx=0;exitDy=0;entryX=1;entryY=0.5;entryDx=0;entryDy=0;labelBackgroundColor=none;strokeColor=#006658;labelBorderColor=none;textShadow=1;html=1;spacingTop=3;spacing=3;spacingLeft=10;" edge="1" parent="WIyWlLk6GJQsqaUBKTNV-1" source="zkfFHV4jXpPFQw0GAbJ--1" target="jX0K1Ipz3QZNNp4KO0iQ-3">
          <mxGeometry width="50" height="50" relative="1" as="geometry">
            <mxPoint x="800" y="640" as="sourcePoint" />
            <mxPoint x="850" y="590" as="targetPoint" />
          </mxGeometry>
        </mxCell>
        <mxCell id="jX0K1Ipz3QZNNp4KO0iQ-139" value="" style="endArrow=classic;rounded=1;fontFamily=Verdana;fontSize=12;fontColor=#000000;fontStyle=3;entryX=0.377;entryY=1.229;entryDx=0;entryDy=0;exitX=0.586;exitY=0.288;exitDx=0;exitDy=0;exitPerimeter=0;labelBackgroundColor=none;strokeColor=#006658;entryPerimeter=0;labelBorderColor=none;textShadow=1;html=1;spacingTop=3;spacing=3;spacingLeft=10;" edge="1" parent="WIyWlLk6GJQsqaUBKTNV-1">
          <mxGeometry width="50" height="50" relative="1" as="geometry">
            <mxPoint x="504.7719999999999" y="430.53800000000007" as="sourcePoint" />
            <mxPoint x="504.75999999999993" y="394.50399999999996" as="targetPoint" />
          </mxGeometry>
        </mxCell>
        <mxCell id="jX0K1Ipz3QZNNp4KO0iQ-140" value="" style="endArrow=classic;rounded=1;fontFamily=Verdana;fontSize=12;fontColor=#000000;fontStyle=3;entryX=0.5;entryY=1;entryDx=0;entryDy=0;labelBackgroundColor=none;strokeColor=#006658;exitX=0.885;exitY=0.212;exitDx=0;exitDy=0;exitPerimeter=0;labelBorderColor=none;textShadow=1;html=1;spacingTop=3;spacing=3;spacingLeft=10;" edge="1" parent="WIyWlLk6GJQsqaUBKTNV-1" source="jX0K1Ipz3QZNNp4KO0iQ-233" target="jX0K1Ipz3QZNNp4KO0iQ-16">
          <mxGeometry width="50" height="50" relative="1" as="geometry">
            <mxPoint x="800" y="640" as="sourcePoint" />
            <mxPoint x="850" y="590" as="targetPoint" />
            <Array as="points">
              <mxPoint x="776" y="387" />
            </Array>
          </mxGeometry>
        </mxCell>
        <mxCell id="jX0K1Ipz3QZNNp4KO0iQ-144" value="" style="endArrow=classic;rounded=1;fontFamily=Verdana;fontSize=12;fontColor=#000000;fontStyle=3;entryX=1.019;entryY=0.412;entryDx=0;entryDy=0;labelBackgroundColor=none;strokeColor=#006658;entryPerimeter=0;exitX=0.373;exitY=0.013;exitDx=0;exitDy=0;exitPerimeter=0;labelBorderColor=none;textShadow=1;html=1;spacingTop=3;spacing=3;spacingLeft=10;" edge="1" parent="WIyWlLk6GJQsqaUBKTNV-1" source="jX0K1Ipz3QZNNp4KO0iQ-183" target="jX0K1Ipz3QZNNp4KO0iQ-22">
          <mxGeometry width="50" height="50" relative="1" as="geometry">
            <mxPoint x="1364" y="96" as="sourcePoint" />
            <mxPoint x="850" y="350" as="targetPoint" />
            <Array as="points">
              <mxPoint x="1362" y="99" />
            </Array>
          </mxGeometry>
        </mxCell>
        <mxCell id="jX0K1Ipz3QZNNp4KO0iQ-145" value="" style="endArrow=none;rounded=1;fontFamily=Verdana;fontSize=12;fontColor=#000000;fontStyle=3;exitX=1;exitY=0.5;exitDx=0;exitDy=0;entryX=0;entryY=0;entryDx=0;entryDy=0;labelBackgroundColor=none;strokeColor=#006658;labelBorderColor=none;textShadow=1;html=1;spacingTop=3;spacing=3;spacingLeft=10;" edge="1" parent="WIyWlLk6GJQsqaUBKTNV-1" source="jX0K1Ipz3QZNNp4KO0iQ-63" target="jX0K1Ipz3QZNNp4KO0iQ-67">
          <mxGeometry width="50" height="50" relative="1" as="geometry">
            <mxPoint x="800" y="880" as="sourcePoint" />
            <mxPoint x="850" y="830" as="targetPoint" />
            <Array as="points">
              <mxPoint x="350" y="950" />
              <mxPoint x="350" y="766" />
            </Array>
          </mxGeometry>
        </mxCell>
        <mxCell id="jX0K1Ipz3QZNNp4KO0iQ-147" value="" style="endArrow=classic;rounded=1;fontFamily=Verdana;fontSize=12;fontColor=#000000;fontStyle=2;labelBackgroundColor=none;strokeColor=#006658;labelBorderColor=none;textShadow=1;html=1;spacingTop=3;spacing=3;spacingLeft=10;" edge="1" parent="WIyWlLk6GJQsqaUBKTNV-1">
          <mxGeometry width="50" height="50" relative="1" as="geometry">
            <mxPoint x="937" y="751.3381553398057" as="sourcePoint" />
            <mxPoint x="909" y="751.61" as="targetPoint" />
          </mxGeometry>
        </mxCell>
        <mxCell id="jX0K1Ipz3QZNNp4KO0iQ-150" value="" style="endArrow=none;rounded=1;fontFamily=Verdana;fontSize=12;fontColor=#000000;fontStyle=3;exitX=1;exitY=0.5;exitDx=0;exitDy=0;labelBackgroundColor=none;strokeColor=#006658;labelBorderColor=none;textShadow=1;html=1;spacingTop=3;spacing=3;spacingLeft=10;" edge="1" parent="WIyWlLk6GJQsqaUBKTNV-1" source="jX0K1Ipz3QZNNp4KO0iQ-73">
          <mxGeometry width="50" height="50" relative="1" as="geometry">
            <mxPoint x="880" y="700" as="sourcePoint" />
            <mxPoint x="1342" y="556" as="targetPoint" />
            <Array as="points">
              <mxPoint x="1341" y="763" />
            </Array>
          </mxGeometry>
        </mxCell>
        <mxCell id="jX0K1Ipz3QZNNp4KO0iQ-151" value="" style="endArrow=classic;rounded=1;fontFamily=Verdana;fontSize=12;fontColor=#000000;fontStyle=3;entryX=0.5;entryY=0;entryDx=0;entryDy=0;labelBackgroundColor=none;strokeColor=#006658;labelBorderColor=none;textShadow=1;html=1;spacingTop=3;spacing=3;spacingLeft=10;" edge="1" parent="WIyWlLk6GJQsqaUBKTNV-1" source="jX0K1Ipz3QZNNp4KO0iQ-248" target="jX0K1Ipz3QZNNp4KO0iQ-65">
          <mxGeometry width="50" height="50" relative="1" as="geometry">
            <mxPoint x="800" y="630" as="sourcePoint" />
            <mxPoint x="850" y="580" as="targetPoint" />
          </mxGeometry>
        </mxCell>
        <mxCell id="jX0K1Ipz3QZNNp4KO0iQ-156" value="" style="endArrow=classic;rounded=1;fontFamily=Verdana;fontSize=12;fontColor=#000000;fontStyle=3;exitX=-0.001;exitY=0.988;exitDx=0;exitDy=0;exitPerimeter=0;labelBackgroundColor=none;strokeColor=#006658;labelBorderColor=none;textShadow=1;html=1;spacingTop=3;spacing=3;spacingLeft=10;" edge="1" parent="WIyWlLk6GJQsqaUBKTNV-1" source="jX0K1Ipz3QZNNp4KO0iQ-115" target="jX0K1Ipz3QZNNp4KO0iQ-112">
          <mxGeometry width="50" height="50" relative="1" as="geometry">
            <mxPoint x="340" y="1500" as="sourcePoint" />
            <mxPoint x="390" y="1450" as="targetPoint" />
          </mxGeometry>
        </mxCell>
        <mxCell id="jX0K1Ipz3QZNNp4KO0iQ-157" value="" style="endArrow=classic;rounded=1;fontFamily=Verdana;fontSize=12;fontColor=#000000;fontStyle=3;entryX=0;entryY=0.5;entryDx=0;entryDy=0;labelBackgroundColor=none;strokeColor=#006658;exitX=0.485;exitY=0.067;exitDx=0;exitDy=0;exitPerimeter=0;labelBorderColor=none;textShadow=1;html=1;spacingTop=3;spacing=3;spacingLeft=10;" edge="1" parent="WIyWlLk6GJQsqaUBKTNV-1" source="jX0K1Ipz3QZNNp4KO0iQ-211">
          <mxGeometry width="50" height="50" relative="1" as="geometry">
            <mxPoint x="1030" y="1190" as="sourcePoint" />
            <mxPoint x="1029" y="964" as="targetPoint" />
            <Array as="points">
              <mxPoint x="980" y="964" />
            </Array>
          </mxGeometry>
        </mxCell>
        <mxCell id="jX0K1Ipz3QZNNp4KO0iQ-159" value="" style="endArrow=none;rounded=1;fontFamily=Verdana;fontSize=12;fontColor=#000000;fontStyle=3;entryX=0;entryY=0.5;entryDx=0;entryDy=0;labelBackgroundColor=none;strokeColor=#006658;labelBorderColor=none;textShadow=1;html=1;spacingTop=3;spacing=3;spacingLeft=10;" edge="1" parent="WIyWlLk6GJQsqaUBKTNV-1" target="jX0K1Ipz3QZNNp4KO0iQ-95">
          <mxGeometry width="50" height="50" relative="1" as="geometry">
            <mxPoint x="980" y="1113" as="sourcePoint" />
            <mxPoint x="800" y="1220" as="targetPoint" />
          </mxGeometry>
        </mxCell>
        <mxCell id="jX0K1Ipz3QZNNp4KO0iQ-160" value="" style="endArrow=classic;rounded=1;fontFamily=Verdana;fontSize=12;fontColor=#000000;fontStyle=3;exitX=0.5;exitY=1;exitDx=0;exitDy=0;labelBackgroundColor=none;strokeColor=#006658;labelBorderColor=none;textShadow=1;html=1;spacingTop=3;spacing=3;spacingLeft=10;entryX=0.46;entryY=0.003;entryDx=0;entryDy=0;entryPerimeter=0;" edge="1" parent="WIyWlLk6GJQsqaUBKTNV-1" source="jX0K1Ipz3QZNNp4KO0iQ-87" target="jX0K1Ipz3QZNNp4KO0iQ-114">
          <mxGeometry width="50" height="50" relative="1" as="geometry">
            <mxPoint x="750" y="1420" as="sourcePoint" />
            <mxPoint x="512" y="1485" as="targetPoint" />
          </mxGeometry>
        </mxCell>
        <mxCell id="jX0K1Ipz3QZNNp4KO0iQ-161" value="" style="endArrow=classic;rounded=1;fontFamily=Verdana;fontSize=12;fontColor=#000000;fontStyle=3;entryX=0.995;entryY=0.584;entryDx=0;entryDy=0;entryPerimeter=0;labelBackgroundColor=none;strokeColor=#006658;labelBorderColor=none;textShadow=1;html=1;spacingTop=3;spacing=3;spacingLeft=10;" edge="1" parent="WIyWlLk6GJQsqaUBKTNV-1" source="jX0K1Ipz3QZNNp4KO0iQ-261" target="jX0K1Ipz3QZNNp4KO0iQ-88">
          <mxGeometry width="50" height="50" relative="1" as="geometry">
            <mxPoint x="750" y="1420" as="sourcePoint" />
            <mxPoint x="800" y="1370" as="targetPoint" />
          </mxGeometry>
        </mxCell>
        <mxCell id="jX0K1Ipz3QZNNp4KO0iQ-162" value="" style="endArrow=classic;rounded=1;fontFamily=Verdana;fontSize=12;fontColor=#000000;fontStyle=3;exitX=0.363;exitY=0.985;exitDx=0;exitDy=0;entryX=0.5;entryY=1;entryDx=0;entryDy=0;labelBackgroundColor=none;strokeColor=#006658;labelBorderColor=none;textShadow=1;html=1;spacingTop=3;spacing=3;spacingLeft=10;exitPerimeter=0;" edge="1" parent="WIyWlLk6GJQsqaUBKTNV-1" source="jX0K1Ipz3QZNNp4KO0iQ-202" target="jX0K1Ipz3QZNNp4KO0iQ-80">
          <mxGeometry width="50" height="50" relative="1" as="geometry">
            <mxPoint x="790" y="970" as="sourcePoint" />
            <mxPoint x="840" y="920" as="targetPoint" />
            <Array as="points">
              <mxPoint x="810" y="1180" />
              <mxPoint x="510" y="1180" />
            </Array>
          </mxGeometry>
        </mxCell>
        <mxCell id="jX0K1Ipz3QZNNp4KO0iQ-163" value="" style="endArrow=classic;rounded=1;fontFamily=Verdana;fontSize=12;fontColor=#000000;fontStyle=3;exitX=1;exitY=0.5;exitDx=0;exitDy=0;entryX=0;entryY=0.5;entryDx=0;entryDy=0;labelBackgroundColor=none;strokeColor=#006658;labelBorderColor=none;textShadow=1;html=1;spacingTop=3;spacing=3;spacingLeft=10;" edge="1" parent="WIyWlLk6GJQsqaUBKTNV-1" source="jX0K1Ipz3QZNNp4KO0iQ-79" target="jX0K1Ipz3QZNNp4KO0iQ-82">
          <mxGeometry width="50" height="50" relative="1" as="geometry">
            <mxPoint x="790" y="970" as="sourcePoint" />
            <mxPoint x="840" y="920" as="targetPoint" />
          </mxGeometry>
        </mxCell>
        <mxCell id="jX0K1Ipz3QZNNp4KO0iQ-164" value="" style="endArrow=classic;rounded=1;fontFamily=Verdana;fontSize=12;fontColor=#000000;fontStyle=3;entryX=0.5;entryY=1;entryDx=0;entryDy=0;labelBackgroundColor=none;strokeColor=#006658;labelBorderColor=none;textShadow=1;html=1;spacingTop=3;spacing=3;spacingLeft=10;" edge="1" parent="WIyWlLk6GJQsqaUBKTNV-1" source="jX0K1Ipz3QZNNp4KO0iQ-81" target="jX0K1Ipz3QZNNp4KO0iQ-70">
          <mxGeometry width="50" height="50" relative="1" as="geometry">
            <mxPoint x="790" y="970" as="sourcePoint" />
            <mxPoint x="840" y="920" as="targetPoint" />
          </mxGeometry>
        </mxCell>
        <mxCell id="jX0K1Ipz3QZNNp4KO0iQ-166" value="" style="endArrow=classic;rounded=1;fontFamily=Verdana;fontSize=12;fontColor=#000000;fontStyle=3;entryX=0.5;entryY=1;entryDx=0;entryDy=0;exitX=0.5;exitY=0;exitDx=0;exitDy=0;labelBackgroundColor=none;strokeColor=#006658;labelBorderColor=none;textShadow=1;html=1;spacingTop=3;spacing=3;spacingLeft=10;" edge="1" parent="WIyWlLk6GJQsqaUBKTNV-1" source="jX0K1Ipz3QZNNp4KO0iQ-78" target="jX0K1Ipz3QZNNp4KO0iQ-65">
          <mxGeometry width="50" height="50" relative="1" as="geometry">
            <mxPoint x="790" y="970" as="sourcePoint" />
            <mxPoint x="840" y="920" as="targetPoint" />
          </mxGeometry>
        </mxCell>
        <mxCell id="jX0K1Ipz3QZNNp4KO0iQ-167" value="" style="endArrow=none;rounded=1;fontFamily=Verdana;fontSize=12;fontColor=#000000;fontStyle=3;exitX=0.5;exitY=0;exitDx=0;exitDy=0;entryX=0.5;entryY=1;entryDx=0;entryDy=0;labelBackgroundColor=none;strokeColor=#006658;labelBorderColor=none;textShadow=1;html=1;spacingTop=3;spacing=3;spacingLeft=10;" edge="1" parent="WIyWlLk6GJQsqaUBKTNV-1" source="jX0K1Ipz3QZNNp4KO0iQ-75" target="jX0K1Ipz3QZNNp4KO0iQ-62">
          <mxGeometry width="50" height="50" relative="1" as="geometry">
            <mxPoint x="790" y="970" as="sourcePoint" />
            <mxPoint x="840" y="920" as="targetPoint" />
          </mxGeometry>
        </mxCell>
        <mxCell id="jX0K1Ipz3QZNNp4KO0iQ-169" value="" style="endArrow=none;rounded=1;fontFamily=Verdana;fontSize=12;fontColor=#000000;fontStyle=3;labelBackgroundColor=none;strokeColor=#006658;labelBorderColor=none;textShadow=1;html=1;spacingTop=3;spacing=3;spacingLeft=10;" edge="1" parent="WIyWlLk6GJQsqaUBKTNV-1">
          <mxGeometry width="50" height="50" relative="1" as="geometry">
            <mxPoint x="260" y="1359.89" as="sourcePoint" />
            <mxPoint x="319" y="1360" as="targetPoint" />
            <Array as="points" />
          </mxGeometry>
        </mxCell>
        <mxCell id="jX0K1Ipz3QZNNp4KO0iQ-171" value="" style="endArrow=none;rounded=1;fontFamily=Verdana;fontSize=12;fontColor=#000000;fontStyle=3;exitX=0.991;exitY=0.322;exitDx=0;exitDy=0;exitPerimeter=0;labelBackgroundColor=none;strokeColor=#006658;labelBorderColor=none;textShadow=1;html=1;spacingTop=3;spacing=3;spacingLeft=10;" edge="1" parent="WIyWlLk6GJQsqaUBKTNV-1">
          <mxGeometry width="50" height="50" relative="1" as="geometry">
            <mxPoint x="260" y="1241.9479999999999" as="sourcePoint" />
            <mxPoint x="318" y="1242" as="targetPoint" />
          </mxGeometry>
        </mxCell>
        <mxCell id="jX0K1Ipz3QZNNp4KO0iQ-178" value="" style="endArrow=classic;rounded=1;fontFamily=Verdana;fontSize=12;fontColor=#000000;fontStyle=3;entryX=0.421;entryY=1;entryDx=0;entryDy=0;entryPerimeter=0;exitX=0.5;exitY=0;exitDx=0;exitDy=0;labelBackgroundColor=none;strokeColor=#006658;labelBorderColor=none;textShadow=1;html=1;spacingTop=3;spacing=3;spacingLeft=10;" edge="1" parent="WIyWlLk6GJQsqaUBKTNV-1" source="zkfFHV4jXpPFQw0GAbJ--6" target="jX0K1Ipz3QZNNp4KO0iQ-7">
          <mxGeometry width="50" height="50" relative="1" as="geometry">
            <mxPoint x="720" y="770" as="sourcePoint" />
            <mxPoint x="770" y="720" as="targetPoint" />
            <Array as="points" />
          </mxGeometry>
        </mxCell>
        <mxCell id="jX0K1Ipz3QZNNp4KO0iQ-182" value="ERD Use Case Diagram" style="text;align=center;verticalAlign=middle;rounded=1;fontColor=#000000;fontSize=32;fontStyle=3;labelBackgroundColor=none;fontFamily=Verdana;labelBorderColor=none;textShadow=1;html=1;spacingTop=3;spacing=3;spacingLeft=10;" vertex="1" parent="WIyWlLk6GJQsqaUBKTNV-1">
          <mxGeometry x="579.75" y="-85" width="380.5" height="30" as="geometry" />
        </mxCell>
        <mxCell id="jX0K1Ipz3QZNNp4KO0iQ-187" value="1" style="text;align=center;verticalAlign=middle;resizable=0;points=[];autosize=1;strokeColor=none;fillColor=none;fontColor=#000000;fontFamily=Verdana;labelBorderColor=none;labelBackgroundColor=none;rounded=1;textShadow=1;html=1;spacingTop=3;spacing=3;spacingLeft=10;fontStyle=2" vertex="1" parent="WIyWlLk6GJQsqaUBKTNV-1">
          <mxGeometry x="198" y="143" width="36" height="29" as="geometry" />
        </mxCell>
        <mxCell id="jX0K1Ipz3QZNNp4KO0iQ-188" value="1" style="text;align=center;verticalAlign=middle;resizable=0;points=[];autosize=1;strokeColor=none;fillColor=none;fontColor=#000000;fontFamily=Verdana;labelBorderColor=none;labelBackgroundColor=none;rounded=1;textShadow=1;html=1;spacingTop=3;spacing=3;spacingLeft=10;fontStyle=2" vertex="1" parent="WIyWlLk6GJQsqaUBKTNV-1">
          <mxGeometry x="251" y="269" width="36" height="29" as="geometry" />
        </mxCell>
        <mxCell id="jX0K1Ipz3QZNNp4KO0iQ-189" value="1" style="text;align=center;verticalAlign=middle;resizable=0;points=[];autosize=1;strokeColor=none;fillColor=none;fontColor=#000000;fontFamily=Verdana;labelBorderColor=none;labelBackgroundColor=none;rounded=1;textShadow=1;html=1;spacingTop=3;spacing=3;spacingLeft=10;fontStyle=2" vertex="1" parent="WIyWlLk6GJQsqaUBKTNV-1">
          <mxGeometry x="272" y="316" width="36" height="29" as="geometry" />
        </mxCell>
        <mxCell id="jX0K1Ipz3QZNNp4KO0iQ-191" value="1" style="text;align=center;verticalAlign=middle;resizable=0;points=[];autosize=1;strokeColor=none;fillColor=none;fontColor=#000000;fontFamily=Verdana;labelBorderColor=none;labelBackgroundColor=none;rounded=1;textShadow=1;html=1;spacingTop=3;spacing=3;spacingLeft=10;fontStyle=2" vertex="1" parent="WIyWlLk6GJQsqaUBKTNV-1">
          <mxGeometry x="427" y="342" width="36" height="29" as="geometry" />
        </mxCell>
        <mxCell id="jX0K1Ipz3QZNNp4KO0iQ-192" value="Works at" style="text;align=center;verticalAlign=middle;resizable=0;points=[];autosize=1;strokeColor=none;fillColor=none;fontColor=#000000;fontFamily=Verdana;labelBorderColor=none;labelBackgroundColor=none;rounded=1;textShadow=1;html=1;spacingTop=3;spacing=3;spacingLeft=10;fontStyle=2" vertex="1" parent="WIyWlLk6GJQsqaUBKTNV-1">
          <mxGeometry x="449" y="197" width="81" height="29" as="geometry" />
        </mxCell>
        <mxCell id="jX0K1Ipz3QZNNp4KO0iQ-194" value="1" style="text;align=center;verticalAlign=middle;resizable=0;points=[];autosize=1;strokeColor=none;fillColor=none;fontColor=#000000;fontFamily=Verdana;labelBorderColor=none;labelBackgroundColor=none;rounded=1;textShadow=1;html=1;spacingTop=3;spacing=3;spacingLeft=10;fontStyle=2" vertex="1" parent="WIyWlLk6GJQsqaUBKTNV-1">
          <mxGeometry x="153" y="406.5" width="36" height="29" as="geometry" />
        </mxCell>
        <mxCell id="jX0K1Ipz3QZNNp4KO0iQ-195" value="1" style="text;align=center;verticalAlign=middle;resizable=0;points=[];autosize=1;strokeColor=none;fillColor=none;fontColor=#000000;fontFamily=Verdana;labelBorderColor=none;labelBackgroundColor=none;rounded=1;textShadow=1;html=1;spacingTop=3;spacing=3;spacingLeft=10;fontStyle=2" vertex="1" parent="WIyWlLk6GJQsqaUBKTNV-1">
          <mxGeometry x="67" y="354" width="36" height="29" as="geometry" />
        </mxCell>
        <mxCell id="jX0K1Ipz3QZNNp4KO0iQ-196" value="" style="edgeStyle=elbowEdgeStyle;rounded=1;orthogonalLoop=1;jettySize=auto;strokeColor=#006658;fontColor=#000000;fillColor=#21C0A5;fontFamily=Verdana;labelBorderColor=none;labelBackgroundColor=none;textShadow=1;html=1;spacingTop=3;spacing=3;spacingLeft=10;fontStyle=2" edge="1" parent="WIyWlLk6GJQsqaUBKTNV-1" source="jX0K1Ipz3QZNNp4KO0iQ-1" target="jX0K1Ipz3QZNNp4KO0iQ-63">
          <mxGeometry relative="1" as="geometry" />
        </mxCell>
        <mxCell id="jX0K1Ipz3QZNNp4KO0iQ-197" value="*" style="text;align=center;verticalAlign=middle;resizable=0;points=[];autosize=1;strokeColor=none;fillColor=none;fontColor=#000000;fontFamily=Verdana;labelBorderColor=none;labelBackgroundColor=none;rounded=1;textShadow=1;html=1;spacingTop=3;spacing=3;spacingLeft=10;fontStyle=2" vertex="1" parent="WIyWlLk6GJQsqaUBKTNV-1">
          <mxGeometry x="156" y="648" width="36" height="29" as="geometry" />
        </mxCell>
        <mxCell id="jX0K1Ipz3QZNNp4KO0iQ-198" value="*" style="text;align=center;verticalAlign=middle;resizable=0;points=[];autosize=1;strokeColor=none;fillColor=none;fontColor=#000000;fontFamily=Verdana;labelBorderColor=none;labelBackgroundColor=none;rounded=1;textShadow=1;html=1;spacingTop=3;spacing=3;spacingLeft=10;fontStyle=2" vertex="1" parent="WIyWlLk6GJQsqaUBKTNV-1">
          <mxGeometry x="578" y="1039" width="36" height="29" as="geometry" />
        </mxCell>
        <mxCell id="jX0K1Ipz3QZNNp4KO0iQ-199" value="0.1" style="text;align=center;verticalAlign=middle;resizable=0;points=[];autosize=1;strokeColor=none;fillColor=none;fontColor=#000000;fontFamily=Verdana;labelBorderColor=none;labelBackgroundColor=none;rounded=1;textShadow=1;html=1;spacingTop=3;spacing=3;spacingLeft=10;fontStyle=2" vertex="1" parent="WIyWlLk6GJQsqaUBKTNV-1">
          <mxGeometry x="686" y="1033" width="48" height="29" as="geometry" />
        </mxCell>
        <mxCell id="jX0K1Ipz3QZNNp4KO0iQ-200" value="1" style="text;align=center;verticalAlign=middle;resizable=0;points=[];autosize=1;strokeColor=none;fillColor=none;fontColor=#000000;fontFamily=Verdana;labelBorderColor=none;labelBackgroundColor=none;rounded=1;textShadow=1;html=1;spacingTop=3;spacing=3;spacingLeft=10;fontStyle=2" vertex="1" parent="WIyWlLk6GJQsqaUBKTNV-1">
          <mxGeometry x="505" y="1117" width="36" height="29" as="geometry" />
        </mxCell>
        <mxCell id="jX0K1Ipz3QZNNp4KO0iQ-201" value="1" style="text;align=center;verticalAlign=middle;resizable=0;points=[];autosize=1;strokeColor=none;fillColor=none;fontColor=#000000;fontFamily=Verdana;labelBorderColor=none;labelBackgroundColor=none;rounded=1;textShadow=1;html=1;spacingTop=3;spacing=3;spacingLeft=10;fontStyle=2" vertex="1" parent="WIyWlLk6GJQsqaUBKTNV-1">
          <mxGeometry x="574" y="1265" width="36" height="29" as="geometry" />
        </mxCell>
        <mxCell id="jX0K1Ipz3QZNNp4KO0iQ-202" value="*" style="text;align=center;verticalAlign=middle;resizable=0;points=[];autosize=1;strokeColor=none;fillColor=none;fontColor=#000000;fontFamily=Verdana;labelBorderColor=none;labelBackgroundColor=none;rounded=1;textShadow=1;html=1;spacingTop=3;spacing=3;spacingLeft=10;fontStyle=2" vertex="1" parent="WIyWlLk6GJQsqaUBKTNV-1">
          <mxGeometry x="796" y="1197" width="36" height="29" as="geometry" />
        </mxCell>
        <mxCell id="jX0K1Ipz3QZNNp4KO0iQ-203" value="*" style="text;align=center;verticalAlign=middle;resizable=0;points=[];autosize=1;strokeColor=none;fillColor=none;fontColor=#000000;fontFamily=Verdana;labelBorderColor=none;labelBackgroundColor=none;rounded=1;textShadow=1;html=1;spacingTop=3;spacing=3;spacingLeft=10;fontStyle=2" vertex="1" parent="WIyWlLk6GJQsqaUBKTNV-1">
          <mxGeometry x="700" y="1288" width="36" height="29" as="geometry" />
        </mxCell>
        <mxCell id="jX0K1Ipz3QZNNp4KO0iQ-204" value="*" style="text;align=center;verticalAlign=middle;resizable=0;points=[];autosize=1;strokeColor=none;fillColor=none;fontColor=#000000;fontFamily=Verdana;labelBorderColor=none;labelBackgroundColor=none;rounded=1;textShadow=1;html=1;spacingTop=3;spacing=3;spacingLeft=10;fontStyle=2" vertex="1" parent="WIyWlLk6GJQsqaUBKTNV-1">
          <mxGeometry x="503" y="1361" width="36" height="29" as="geometry" />
        </mxCell>
        <mxCell id="jX0K1Ipz3QZNNp4KO0iQ-206" value="*" style="text;align=center;verticalAlign=middle;resizable=0;points=[];autosize=1;strokeColor=none;fillColor=none;fontColor=#000000;fontFamily=Verdana;labelBorderColor=none;labelBackgroundColor=none;rounded=1;textShadow=1;html=1;spacingTop=3;spacing=3;spacingLeft=10;fontStyle=2" vertex="1" parent="WIyWlLk6GJQsqaUBKTNV-1">
          <mxGeometry x="396" y="1562" width="36" height="29" as="geometry" />
        </mxCell>
        <mxCell id="jX0K1Ipz3QZNNp4KO0iQ-209" value="1" style="text;align=center;verticalAlign=middle;resizable=0;points=[];autosize=1;strokeColor=none;fillColor=none;fontColor=#000000;fontFamily=Verdana;labelBorderColor=none;labelBackgroundColor=none;rounded=1;textShadow=1;html=1;spacingTop=3;spacing=3;spacingLeft=10;fontStyle=2" vertex="1" parent="WIyWlLk6GJQsqaUBKTNV-1">
          <mxGeometry x="278" y="1586" width="36" height="29" as="geometry" />
        </mxCell>
        <mxCell id="jX0K1Ipz3QZNNp4KO0iQ-210" value="1" style="text;fontColor=#000000;fontFamily=Verdana;labelBorderColor=none;labelBackgroundColor=none;rounded=1;textShadow=1;html=1;spacingTop=3;spacing=3;spacingLeft=10;fontStyle=2" vertex="1" parent="WIyWlLk6GJQsqaUBKTNV-1">
          <mxGeometry x="508.99775146484376" y="1446.99846282959" width="35" height="36" as="geometry" />
        </mxCell>
        <mxCell id="jX0K1Ipz3QZNNp4KO0iQ-212" value="1" style="text;align=center;verticalAlign=middle;resizable=0;points=[];autosize=1;strokeColor=none;fillColor=none;fontColor=#000000;fontFamily=Verdana;labelBorderColor=none;labelBackgroundColor=none;rounded=1;textShadow=1;html=1;spacingTop=3;spacing=3;spacingLeft=10;fontStyle=2" vertex="1" parent="WIyWlLk6GJQsqaUBKTNV-1">
          <mxGeometry x="467" y="386" width="36" height="29" as="geometry" />
        </mxCell>
        <mxCell id="jX0K1Ipz3QZNNp4KO0iQ-213" value="1" style="text;align=center;verticalAlign=middle;resizable=0;points=[];autosize=1;strokeColor=none;fillColor=none;fontColor=#000000;fontFamily=Verdana;labelBorderColor=none;labelBackgroundColor=none;rounded=1;textShadow=1;html=1;spacingTop=3;spacing=3;spacingLeft=10;fontStyle=2" vertex="1" parent="WIyWlLk6GJQsqaUBKTNV-1">
          <mxGeometry x="486" y="547" width="36" height="29" as="geometry" />
        </mxCell>
        <mxCell id="jX0K1Ipz3QZNNp4KO0iQ-214" value="1" style="text;align=center;verticalAlign=middle;resizable=0;points=[];autosize=1;strokeColor=none;fillColor=none;fontColor=#000000;fontFamily=Verdana;labelBorderColor=none;labelBackgroundColor=none;rounded=1;textShadow=1;html=1;spacingTop=3;spacing=3;spacingLeft=10;fontStyle=2" vertex="1" parent="WIyWlLk6GJQsqaUBKTNV-1">
          <mxGeometry x="706" y="549" width="36" height="29" as="geometry" />
        </mxCell>
        <mxCell id="jX0K1Ipz3QZNNp4KO0iQ-216" value="" style="endArrow=classic;rounded=1;fontFamily=Verdana;fontSize=12;fontColor=#000000;fontStyle=3;entryX=0.349;entryY=0.009;entryDx=0;entryDy=0;entryPerimeter=0;labelBackgroundColor=none;strokeColor=#006658;labelBorderColor=none;textShadow=1;html=1;spacingTop=3;spacing=3;spacingLeft=10;" edge="1" parent="WIyWlLk6GJQsqaUBKTNV-1" source="jX0K1Ipz3QZNNp4KO0iQ-215" target="jX0K1Ipz3QZNNp4KO0iQ-72">
          <mxGeometry width="50" height="50" relative="1" as="geometry">
            <mxPoint x="933" y="555" as="sourcePoint" />
            <mxPoint x="1090" y="680" as="targetPoint" />
          </mxGeometry>
        </mxCell>
        <mxCell id="jX0K1Ipz3QZNNp4KO0iQ-215" value="Creates" style="text;align=center;verticalAlign=middle;resizable=0;points=[];autosize=1;strokeColor=none;fillColor=none;fontColor=#000000;fontFamily=Verdana;labelBorderColor=none;labelBackgroundColor=none;rounded=1;textShadow=1;html=1;spacingTop=3;spacing=3;spacingLeft=10;fontStyle=2" vertex="1" parent="WIyWlLk6GJQsqaUBKTNV-1">
          <mxGeometry x="963" y="602" width="74" height="29" as="geometry" />
        </mxCell>
        <mxCell id="jX0K1Ipz3QZNNp4KO0iQ-219" value="" style="endArrow=none;rounded=1;strokeColor=#006658;fontColor=#000000;fillColor=#21C0A5;entryX=0.578;entryY=1.004;entryDx=0;entryDy=0;entryPerimeter=0;exitX=0.497;exitY=-0.044;exitDx=0;exitDy=0;exitPerimeter=0;fontFamily=Verdana;labelBorderColor=none;labelBackgroundColor=none;textShadow=1;html=1;spacingTop=3;spacing=3;spacingLeft=10;fontStyle=2" edge="1" parent="WIyWlLk6GJQsqaUBKTNV-1">
          <mxGeometry width="50" height="50" relative="1" as="geometry">
            <mxPoint x="980.3399999999999" y="601.996" as="sourcePoint" />
            <mxPoint x="930" y="557.3000000000003" as="targetPoint" />
          </mxGeometry>
        </mxCell>
        <mxCell id="jX0K1Ipz3QZNNp4KO0iQ-220" value="*" style="text;align=center;verticalAlign=middle;resizable=0;points=[];autosize=1;strokeColor=none;fillColor=none;fontColor=#000000;fontFamily=Verdana;labelBorderColor=none;labelBackgroundColor=none;rounded=1;textShadow=1;html=1;spacingTop=3;spacing=3;spacingLeft=10;fontStyle=2" vertex="1" parent="WIyWlLk6GJQsqaUBKTNV-1">
          <mxGeometry x="894" y="753" width="36" height="29" as="geometry" />
        </mxCell>
        <mxCell id="jX0K1Ipz3QZNNp4KO0iQ-221" value="*" style="text;align=center;verticalAlign=middle;resizable=0;points=[];autosize=1;strokeColor=none;fillColor=none;fontColor=#000000;fontFamily=Verdana;labelBorderColor=none;labelBackgroundColor=none;rounded=1;textShadow=1;html=1;spacingTop=3;spacing=3;spacingLeft=10;fontStyle=2" vertex="1" parent="WIyWlLk6GJQsqaUBKTNV-1">
          <mxGeometry x="979" y="730" width="36" height="29" as="geometry" />
        </mxCell>
        <mxCell id="jX0K1Ipz3QZNNp4KO0iQ-222" value="For" style="text;align=center;verticalAlign=middle;resizable=0;points=[];autosize=1;strokeColor=none;fillColor=none;fontColor=#000000;fontFamily=Verdana;labelBorderColor=none;labelBackgroundColor=none;rounded=1;textShadow=1;html=1;spacingTop=3;spacing=3;spacingLeft=10;fontStyle=2" vertex="1" parent="WIyWlLk6GJQsqaUBKTNV-1">
          <mxGeometry x="928" y="737" width="47" height="29" as="geometry" />
        </mxCell>
        <mxCell id="jX0K1Ipz3QZNNp4KO0iQ-225" value="" style="endArrow=none;rounded=1;strokeColor=#006658;fontColor=#000000;fillColor=#21C0A5;fontFamily=Verdana;labelBorderColor=none;labelBackgroundColor=none;textShadow=1;html=1;spacingTop=3;spacing=3;spacingLeft=10;exitX=1.005;exitY=0.48;exitDx=0;exitDy=0;exitPerimeter=0;fontStyle=2" edge="1" parent="WIyWlLk6GJQsqaUBKTNV-1" source="jX0K1Ipz3QZNNp4KO0iQ-222">
          <mxGeometry width="50" height="50" relative="1" as="geometry">
            <mxPoint x="969" y="754" as="sourcePoint" />
            <mxPoint x="1010" y="751.26" as="targetPoint" />
          </mxGeometry>
        </mxCell>
        <mxCell id="jX0K1Ipz3QZNNp4KO0iQ-183" value="Extends" style="text;align=center;verticalAlign=middle;resizable=0;points=[];autosize=1;strokeColor=none;fillColor=none;fontColor=#000000;fontFamily=Verdana;labelBorderColor=none;labelBackgroundColor=none;rounded=1;textShadow=1;html=1;spacingTop=3;spacing=3;spacingLeft=10;fontStyle=2" vertex="1" parent="WIyWlLk6GJQsqaUBKTNV-1">
          <mxGeometry x="1336" y="197" width="76" height="29" as="geometry" />
        </mxCell>
        <mxCell id="jX0K1Ipz3QZNNp4KO0iQ-228" value="" style="endArrow=none;rounded=1;strokeColor=#006658;fontColor=#000000;fillColor=#21C0A5;entryX=0.388;entryY=1.005;entryDx=0;entryDy=0;entryPerimeter=0;fontFamily=Verdana;labelBorderColor=none;labelBackgroundColor=none;textShadow=1;html=1;spacingTop=3;spacing=3;spacingLeft=10;fontStyle=2" edge="1" parent="WIyWlLk6GJQsqaUBKTNV-1" target="jX0K1Ipz3QZNNp4KO0iQ-183">
          <mxGeometry width="50" height="50" relative="1" as="geometry">
            <mxPoint x="1367" y="493" as="sourcePoint" />
            <mxPoint x="1101" y="276" as="targetPoint" />
          </mxGeometry>
        </mxCell>
        <mxCell id="jX0K1Ipz3QZNNp4KO0iQ-229" value="*" style="text;align=center;verticalAlign=middle;resizable=0;points=[];autosize=1;strokeColor=none;fillColor=none;fontColor=#000000;fontFamily=Verdana;labelBorderColor=none;labelBackgroundColor=none;rounded=1;textShadow=1;html=1;spacingTop=3;spacing=3;spacingLeft=10;fontStyle=2" vertex="1" parent="WIyWlLk6GJQsqaUBKTNV-1">
          <mxGeometry x="469" y="470" width="36" height="29" as="geometry" />
        </mxCell>
        <mxCell id="jX0K1Ipz3QZNNp4KO0iQ-230" value="Works in" style="text;align=center;verticalAlign=middle;resizable=0;points=[];autosize=1;strokeColor=none;fillColor=none;fontColor=#000000;fontFamily=Verdana;labelBorderColor=none;labelBackgroundColor=none;rounded=1;textShadow=1;html=1;spacingTop=3;spacing=3;spacingLeft=10;fontStyle=2" vertex="1" parent="WIyWlLk6GJQsqaUBKTNV-1">
          <mxGeometry x="472" y="426" width="80" height="29" as="geometry" />
        </mxCell>
        <mxCell id="jX0K1Ipz3QZNNp4KO0iQ-232" value="" style="endArrow=none;rounded=1;strokeColor=#006658;fontColor=#000000;fillColor=#21C0A5;entryX=0.416;entryY=0.965;entryDx=0;entryDy=0;entryPerimeter=0;fontFamily=Verdana;labelBorderColor=none;labelBackgroundColor=none;textShadow=1;html=1;spacingTop=3;spacing=3;spacingLeft=10;fontStyle=2" edge="1" parent="WIyWlLk6GJQsqaUBKTNV-1" target="jX0K1Ipz3QZNNp4KO0iQ-230">
          <mxGeometry width="50" height="50" relative="1" as="geometry">
            <mxPoint x="505" y="491" as="sourcePoint" />
            <mxPoint x="743" y="393" as="targetPoint" />
          </mxGeometry>
        </mxCell>
        <mxCell id="jX0K1Ipz3QZNNp4KO0iQ-233" value="Extends" style="text;align=center;verticalAlign=middle;resizable=0;points=[];autosize=1;strokeColor=none;fillColor=none;fontColor=#000000;fontFamily=Verdana;labelBorderColor=none;labelBackgroundColor=none;rounded=1;textShadow=1;html=1;spacingTop=3;spacing=3;spacingLeft=10;fontStyle=2" vertex="1" parent="WIyWlLk6GJQsqaUBKTNV-1">
          <mxGeometry x="610" y="420.5" width="76" height="29" as="geometry" />
        </mxCell>
        <mxCell id="jX0K1Ipz3QZNNp4KO0iQ-235" value="" style="endArrow=none;rounded=1;strokeColor=#006658;fontColor=#000000;fillColor=#21C0A5;exitX=0.54;exitY=0.006;exitDx=0;exitDy=0;exitPerimeter=0;entryX=0.187;entryY=0.931;entryDx=0;entryDy=0;entryPerimeter=0;fontFamily=Verdana;labelBorderColor=none;labelBackgroundColor=none;textShadow=1;html=1;spacingTop=3;spacing=3;spacingLeft=10;fontStyle=2" edge="1" parent="WIyWlLk6GJQsqaUBKTNV-1" source="jX0K1Ipz3QZNNp4KO0iQ-128" target="jX0K1Ipz3QZNNp4KO0iQ-233">
          <mxGeometry width="50" height="50" relative="1" as="geometry">
            <mxPoint x="558" y="480" as="sourcePoint" />
            <mxPoint x="640" y="397" as="targetPoint" />
          </mxGeometry>
        </mxCell>
        <mxCell id="jX0K1Ipz3QZNNp4KO0iQ-237" value="Extends" style="text;align=center;verticalAlign=middle;resizable=0;points=[];autosize=1;strokeColor=none;fillColor=none;fontColor=#000000;fontFamily=Verdana;labelBorderColor=none;labelBackgroundColor=none;rounded=1;textShadow=1;html=1;spacingTop=3;spacing=3;spacingLeft=10;fontStyle=2" vertex="1" parent="WIyWlLk6GJQsqaUBKTNV-1">
          <mxGeometry x="742" y="418" width="76" height="29" as="geometry" />
        </mxCell>
        <mxCell id="jX0K1Ipz3QZNNp4KO0iQ-238" value="" style="endArrow=none;rounded=1;strokeColor=#006658;fontColor=#000000;fillColor=#21C0A5;fontFamily=Verdana;labelBorderColor=none;labelBackgroundColor=none;textShadow=1;html=1;spacingTop=3;spacing=3;spacingLeft=10;entryX=0.467;entryY=0.933;entryDx=0;entryDy=0;entryPerimeter=0;fontStyle=2" edge="1" parent="WIyWlLk6GJQsqaUBKTNV-1" target="jX0K1Ipz3QZNNp4KO0iQ-237">
          <mxGeometry width="50" height="50" relative="1" as="geometry">
            <mxPoint x="777" y="489" as="sourcePoint" />
            <mxPoint x="775.3040000000001" y="454.962" as="targetPoint" />
          </mxGeometry>
        </mxCell>
        <mxCell id="jX0K1Ipz3QZNNp4KO0iQ-240" value="Extends" style="text;align=center;verticalAlign=middle;resizable=0;points=[];autosize=1;strokeColor=none;fillColor=none;fontColor=#000000;fontFamily=Verdana;labelBorderColor=none;labelBackgroundColor=none;rounded=1;textShadow=1;html=1;spacingTop=3;spacing=3;spacingLeft=10;fontStyle=2" vertex="1" parent="WIyWlLk6GJQsqaUBKTNV-1">
          <mxGeometry x="818" y="445" width="76" height="29" as="geometry" />
        </mxCell>
        <mxCell id="jX0K1Ipz3QZNNp4KO0iQ-241" value="" style="endArrow=none;rounded=1;strokeColor=#006658;fontColor=#000000;fillColor=#21C0A5;exitX=0.238;exitY=0.032;exitDx=0;exitDy=0;exitPerimeter=0;fontFamily=Verdana;labelBorderColor=none;labelBackgroundColor=none;textShadow=1;html=1;spacingTop=3;spacing=3;spacingLeft=10;fontStyle=2" edge="1" parent="WIyWlLk6GJQsqaUBKTNV-1" source="jX0K1Ipz3QZNNp4KO0iQ-132" target="jX0K1Ipz3QZNNp4KO0iQ-240">
          <mxGeometry width="50" height="50" relative="1" as="geometry">
            <mxPoint x="885" y="486" as="sourcePoint" />
            <mxPoint x="887.3040000000001" y="462.562" as="targetPoint" />
          </mxGeometry>
        </mxCell>
        <mxCell id="jX0K1Ipz3QZNNp4KO0iQ-245" value="Extends" style="text;align=center;verticalAlign=middle;resizable=0;points=[];autosize=1;strokeColor=none;fillColor=none;fontColor=#000000;fontFamily=Verdana;labelBorderColor=none;labelBackgroundColor=none;rounded=1;textShadow=1;html=1;spacingTop=3;spacing=3;spacingLeft=10;fontStyle=2" vertex="1" parent="WIyWlLk6GJQsqaUBKTNV-1">
          <mxGeometry x="944" y="418" width="76" height="29" as="geometry" />
        </mxCell>
        <mxCell id="jX0K1Ipz3QZNNp4KO0iQ-246" value="" style="endArrow=none;rounded=1;strokeColor=#006658;fontColor=#000000;fillColor=#21C0A5;exitX=0.25;exitY=0;exitDx=0;exitDy=0;exitPerimeter=0;fontFamily=Verdana;labelBorderColor=none;labelBackgroundColor=none;textShadow=1;html=1;spacingTop=3;spacing=3;spacingLeft=10;fontStyle=2" edge="1" parent="WIyWlLk6GJQsqaUBKTNV-1" source="jX0K1Ipz3QZNNp4KO0iQ-134" target="jX0K1Ipz3QZNNp4KO0iQ-245">
          <mxGeometry width="50" height="50" relative="1" as="geometry">
            <mxPoint x="1107.16" y="487.04" as="sourcePoint" />
            <mxPoint x="1107.0040000000001" y="452.002" as="targetPoint" />
          </mxGeometry>
        </mxCell>
        <mxCell id="jX0K1Ipz3QZNNp4KO0iQ-248" value="Takes" style="text;align=center;verticalAlign=middle;resizable=0;points=[];autosize=1;strokeColor=none;fillColor=none;fontColor=#000000;fontFamily=Verdana;labelBorderColor=none;labelBackgroundColor=none;rounded=1;textShadow=1;html=1;spacingTop=3;spacing=3;spacingLeft=10;fontStyle=2" vertex="1" parent="WIyWlLk6GJQsqaUBKTNV-1">
          <mxGeometry x="623" y="589" width="62" height="29" as="geometry" />
        </mxCell>
        <mxCell id="jX0K1Ipz3QZNNp4KO0iQ-250" value="" style="endArrow=none;rounded=1;strokeColor=#006658;fontColor=#000000;fillColor=#21C0A5;entryX=0.374;entryY=1.021;entryDx=0;entryDy=0;entryPerimeter=0;fontFamily=Verdana;labelBorderColor=none;labelBackgroundColor=none;textShadow=1;html=1;spacingTop=3;spacing=3;spacingLeft=10;fontStyle=2" edge="1" parent="WIyWlLk6GJQsqaUBKTNV-1" source="jX0K1Ipz3QZNNp4KO0iQ-248" target="jX0K1Ipz3QZNNp4KO0iQ-131">
          <mxGeometry width="50" height="50" relative="1" as="geometry">
            <mxPoint x="635" y="644" as="sourcePoint" />
            <mxPoint x="685" y="594" as="targetPoint" />
          </mxGeometry>
        </mxCell>
        <mxCell id="jX0K1Ipz3QZNNp4KO0iQ-251" value="Prepare" style="text;align=center;verticalAlign=middle;resizable=0;points=[];autosize=1;strokeColor=none;fillColor=none;fontColor=#000000;fontFamily=Verdana;labelBorderColor=none;labelBackgroundColor=none;rounded=1;textShadow=1;html=1;spacingTop=3;spacing=3;spacingLeft=10;fontStyle=2" vertex="1" parent="WIyWlLk6GJQsqaUBKTNV-1">
          <mxGeometry x="482" y="585" width="74" height="29" as="geometry" />
        </mxCell>
        <mxCell id="jX0K1Ipz3QZNNp4KO0iQ-253" value="" style="endArrow=none;rounded=1;strokeColor=#006658;fontColor=#000000;fillColor=#21C0A5;entryX=0.48;entryY=1.074;entryDx=0;entryDy=0;entryPerimeter=0;exitX=0.426;exitY=0.154;exitDx=0;exitDy=0;exitPerimeter=0;fontFamily=Verdana;labelBorderColor=none;labelBackgroundColor=none;textShadow=1;html=1;spacingTop=3;spacing=3;spacingLeft=10;fontStyle=2" edge="1" parent="WIyWlLk6GJQsqaUBKTNV-1">
          <mxGeometry width="50" height="50" relative="1" as="geometry">
            <mxPoint x="510.186" y="590.0439999999999" as="sourcePoint" />
            <mxPoint x="510.99999999999994" y="556" as="targetPoint" />
          </mxGeometry>
        </mxCell>
        <mxCell id="jX0K1Ipz3QZNNp4KO0iQ-152" value="" style="endArrow=classic;rounded=1;fontFamily=Verdana;fontSize=12;fontColor=#000000;fontStyle=3;entryX=0.5;entryY=0;entryDx=0;entryDy=0;labelBackgroundColor=none;strokeColor=#006658;exitX=0.301;exitY=1.034;exitDx=0;exitDy=0;exitPerimeter=0;labelBorderColor=none;textShadow=1;html=1;spacingTop=3;spacing=3;spacingLeft=10;" edge="1" parent="WIyWlLk6GJQsqaUBKTNV-1">
          <mxGeometry width="50" height="50" relative="1" as="geometry">
            <mxPoint x="510.911" y="610.884" as="sourcePoint" />
            <mxPoint x="509.08" y="680" as="targetPoint" />
          </mxGeometry>
        </mxCell>
        <mxCell id="jX0K1Ipz3QZNNp4KO0iQ-258" value="" style="endArrow=classic;rounded=1;fontFamily=Verdana;fontSize=12;fontColor=#000000;fontStyle=2;labelBackgroundColor=none;strokeColor=#006658;entryX=0.001;entryY=0.373;entryDx=0;entryDy=0;entryPerimeter=0;labelBorderColor=none;textShadow=1;html=1;spacingTop=3;spacing=3;spacingLeft=10;" edge="1" parent="WIyWlLk6GJQsqaUBKTNV-1" source="jX0K1Ipz3QZNNp4KO0iQ-259" target="jX0K1Ipz3QZNNp4KO0iQ-69">
          <mxGeometry width="50" height="50" relative="1" as="geometry">
            <mxPoint x="507" y="872" as="sourcePoint" />
            <mxPoint x="597" y="744" as="targetPoint" />
          </mxGeometry>
        </mxCell>
        <mxCell id="jX0K1Ipz3QZNNp4KO0iQ-259" value="For" style="text;align=center;verticalAlign=middle;resizable=0;points=[];autosize=1;strokeColor=none;fillColor=none;fontColor=#000000;fontFamily=Verdana;labelBorderColor=none;labelBackgroundColor=none;rounded=1;textShadow=1;html=1;spacingTop=3;spacing=3;spacingLeft=10;fontStyle=2" vertex="1" parent="WIyWlLk6GJQsqaUBKTNV-1">
          <mxGeometry x="645" y="730" width="47" height="29" as="geometry" />
        </mxCell>
        <mxCell id="jX0K1Ipz3QZNNp4KO0iQ-260" value="" style="endArrow=none;rounded=1;strokeColor=#006658;fontColor=#000000;fillColor=#21C0A5;entryX=0.012;entryY=0.371;entryDx=0;entryDy=0;entryPerimeter=0;fontFamily=Verdana;labelBorderColor=none;labelBackgroundColor=none;textShadow=1;html=1;spacingTop=3;spacing=3;spacingLeft=10;fontStyle=2" edge="1" parent="WIyWlLk6GJQsqaUBKTNV-1">
          <mxGeometry width="50" height="50" relative="1" as="geometry">
            <mxPoint x="614" y="743" as="sourcePoint" />
            <mxPoint x="650.0000000000001" y="742.6640000000002" as="targetPoint" />
          </mxGeometry>
        </mxCell>
        <mxCell id="jX0K1Ipz3QZNNp4KO0iQ-261" value="Against a" style="text;align=center;verticalAlign=middle;resizable=0;points=[];autosize=1;strokeColor=none;fillColor=none;fontColor=#000000;fontFamily=Verdana;labelBorderColor=none;labelBackgroundColor=none;rounded=1;textShadow=1;html=1;spacingTop=3;spacing=3;spacingLeft=10;fontStyle=2" vertex="1" parent="WIyWlLk6GJQsqaUBKTNV-1">
          <mxGeometry x="616" y="1279.5" width="84" height="29" as="geometry" />
        </mxCell>
        <mxCell id="jX0K1Ipz3QZNNp4KO0iQ-264" value="" style="endArrow=none;rounded=1;strokeColor=#006658;fontColor=#000000;fillColor=#21C0A5;exitX=0.984;exitY=0.507;exitDx=0;exitDy=0;exitPerimeter=0;entryX=0;entryY=0.5;entryDx=0;entryDy=0;fontFamily=Verdana;labelBorderColor=none;labelBackgroundColor=none;textShadow=1;html=1;spacingTop=3;spacing=3;spacingLeft=10;fontStyle=2" edge="1" parent="WIyWlLk6GJQsqaUBKTNV-1" source="jX0K1Ipz3QZNNp4KO0iQ-261" target="jX0K1Ipz3QZNNp4KO0iQ-92">
          <mxGeometry width="50" height="50" relative="1" as="geometry">
            <mxPoint x="681" y="1299" as="sourcePoint" />
            <mxPoint x="731" y="1249" as="targetPoint" />
          </mxGeometry>
        </mxCell>
        <mxCell id="jX0K1Ipz3QZNNp4KO0iQ-268" value="Extends" style="text;align=center;verticalAlign=middle;resizable=0;points=[];autosize=1;strokeColor=none;fillColor=none;fontColor=#000000;fontFamily=Verdana;labelBorderColor=none;labelBackgroundColor=none;rounded=1;textShadow=1;html=1;spacingTop=3;spacing=3;spacingLeft=10;fontStyle=2" vertex="1" parent="WIyWlLk6GJQsqaUBKTNV-1">
          <mxGeometry x="276" y="1124" width="76" height="29" as="geometry" />
        </mxCell>
        <mxCell id="jX0K1Ipz3QZNNp4KO0iQ-270" value="" style="endArrow=none;rounded=1;strokeColor=#006658;fontColor=#000000;fillColor=#21C0A5;entryX=0.464;entryY=0.963;entryDx=0;entryDy=0;entryPerimeter=0;fontFamily=Verdana;labelBorderColor=none;labelBackgroundColor=none;textShadow=1;html=1;spacingTop=3;spacing=3;spacingLeft=10;exitX=1.001;exitY=0.381;exitDx=0;exitDy=0;exitPerimeter=0;fontStyle=2" edge="1" parent="WIyWlLk6GJQsqaUBKTNV-1" source="jX0K1Ipz3QZNNp4KO0iQ-108">
          <mxGeometry width="50" height="50" relative="1" as="geometry">
            <mxPoint x="260" y="1460" as="sourcePoint" />
            <mxPoint x="318.384" y="1150.998" as="targetPoint" />
            <Array as="points">
              <mxPoint x="319.08" y="1459.96" />
            </Array>
          </mxGeometry>
        </mxCell>
        <mxCell id="jX0K1Ipz3QZNNp4KO0iQ-272" value="" style="endArrow=classic;rounded=1;strokeColor=#006658;fontColor=#000000;fillColor=#21C0A5;entryX=0.994;entryY=0.273;entryDx=0;entryDy=0;entryPerimeter=0;exitX=0.41;exitY=0.192;exitDx=0;exitDy=0;exitPerimeter=0;fontFamily=Verdana;labelBorderColor=none;labelBackgroundColor=none;textShadow=1;html=1;spacingTop=3;spacing=3;spacingLeft=10;fontStyle=2" edge="1" parent="WIyWlLk6GJQsqaUBKTNV-1" target="jX0K1Ipz3QZNNp4KO0iQ-76">
          <mxGeometry width="50" height="50" relative="1" as="geometry">
            <mxPoint x="317.93" y="1130.0020000000002" as="sourcePoint" />
            <mxPoint x="260" y="1107.3500000000001" as="targetPoint" />
            <Array as="points">
              <mxPoint x="317.92" y="1110.01" />
            </Array>
          </mxGeometry>
        </mxCell>
        <mxCell id="jX0K1Ipz3QZNNp4KO0iQ-211" value="Extends" style="text;align=center;verticalAlign=middle;resizable=0;points=[];autosize=1;strokeColor=none;fillColor=none;fontColor=#000000;fontFamily=Verdana;labelBorderColor=none;labelBackgroundColor=none;rounded=1;textShadow=1;html=1;spacingTop=3;spacing=3;spacingLeft=10;fontStyle=2" vertex="1" parent="WIyWlLk6GJQsqaUBKTNV-1">
          <mxGeometry x="944" y="1039" width="76" height="29" as="geometry" />
        </mxCell>
        <mxCell id="jX0K1Ipz3QZNNp4KO0iQ-274" value="" style="endArrow=none;rounded=1;strokeColor=#006658;fontColor=#000000;fillColor=#21C0A5;exitX=-0.015;exitY=0.175;exitDx=0;exitDy=0;exitPerimeter=0;entryX=0.495;entryY=1.037;entryDx=0;entryDy=0;entryPerimeter=0;fontFamily=Verdana;labelBorderColor=none;labelBackgroundColor=none;textShadow=1;html=1;spacingTop=3;spacing=3;spacingLeft=10;fontStyle=2" edge="1" parent="WIyWlLk6GJQsqaUBKTNV-1" source="jX0K1Ipz3QZNNp4KO0iQ-101" target="jX0K1Ipz3QZNNp4KO0iQ-211">
          <mxGeometry width="50" height="50" relative="1" as="geometry">
            <mxPoint x="810" y="1130" as="sourcePoint" />
            <mxPoint x="860" y="1080" as="targetPoint" />
            <Array as="points">
              <mxPoint x="980" y="1202" />
            </Array>
          </mxGeometry>
        </mxCell>
        <mxCell id="jX0K1Ipz3QZNNp4KO0iQ-275" value="1" style="text;align=center;verticalAlign=middle;resizable=0;points=[];autosize=1;strokeColor=none;fillColor=none;fontColor=#000000;fontFamily=Verdana;labelBorderColor=none;labelBackgroundColor=none;rounded=1;textShadow=1;html=1;spacingTop=3;spacing=3;spacingLeft=10;fontStyle=2" vertex="1" parent="WIyWlLk6GJQsqaUBKTNV-1">
          <mxGeometry x="700" y="743.5" width="36" height="29" as="geometry" />
        </mxCell>
        <mxCell id="jX0K1Ipz3QZNNp4KO0iQ-276" value="1" style="text;align=center;verticalAlign=middle;resizable=0;points=[];autosize=1;strokeColor=none;fillColor=none;fontColor=#000000;fontFamily=Verdana;labelBorderColor=none;labelBackgroundColor=none;rounded=1;textShadow=1;html=1;spacingTop=3;spacing=3;spacingLeft=10;fontStyle=2" vertex="1" parent="WIyWlLk6GJQsqaUBKTNV-1">
          <mxGeometry x="592" y="712" width="36" height="29" as="geometry" />
        </mxCell>
        <mxCell id="jX0K1Ipz3QZNNp4KO0iQ-277" value="1" style="text;align=center;verticalAlign=middle;resizable=0;points=[];autosize=1;strokeColor=none;fillColor=none;fontColor=#000000;fontFamily=Verdana;labelBorderColor=none;labelBackgroundColor=none;rounded=1;textShadow=1;html=1;spacingTop=3;spacing=3;spacingLeft=10;fontStyle=2" vertex="1" parent="WIyWlLk6GJQsqaUBKTNV-1">
          <mxGeometry x="402" y="730" width="36" height="29" as="geometry" />
        </mxCell>
        <mxCell id="jX0K1Ipz3QZNNp4KO0iQ-278" value="1" style="text;align=center;verticalAlign=middle;resizable=0;points=[];autosize=1;strokeColor=none;fillColor=none;fontColor=#000000;fontFamily=Verdana;labelBorderColor=none;labelBackgroundColor=none;rounded=1;textShadow=1;html=1;spacingTop=3;spacing=3;spacingLeft=10;fontStyle=2" vertex="1" parent="WIyWlLk6GJQsqaUBKTNV-1">
          <mxGeometry x="262" y="920" width="36" height="29" as="geometry" />
        </mxCell>
        <mxCell id="jX0K1Ipz3QZNNp4KO0iQ-279" value="1" style="text;align=center;verticalAlign=middle;resizable=0;points=[];autosize=1;strokeColor=none;fillColor=none;fontColor=#000000;fontFamily=Verdana;labelBorderColor=none;labelBackgroundColor=none;rounded=1;textShadow=1;html=1;spacingTop=3;spacing=3;spacingLeft=10;fontStyle=2" vertex="1" parent="WIyWlLk6GJQsqaUBKTNV-1">
          <mxGeometry x="182" y="854" width="36" height="29" as="geometry" />
        </mxCell>
        <mxCell id="jX0K1Ipz3QZNNp4KO0iQ-280" value="1" style="text;align=center;verticalAlign=middle;resizable=0;points=[];autosize=1;strokeColor=none;fillColor=none;fontColor=#000000;fontFamily=Verdana;labelBorderColor=none;labelBackgroundColor=none;rounded=1;textShadow=1;html=1;spacingTop=3;spacing=3;spacingLeft=10;fontStyle=2" vertex="1" parent="WIyWlLk6GJQsqaUBKTNV-1">
          <mxGeometry x="157" y="810" width="36" height="29" as="geometry" />
        </mxCell>
        <mxCell id="jX0K1Ipz3QZNNp4KO0iQ-244" value="" style="endArrow=classic;rounded=1;fontFamily=Verdana;fontSize=12;fontColor=#000000;fontStyle=3;labelBackgroundColor=none;strokeColor=#006658;entryX=0.563;entryY=1.005;entryDx=0;entryDy=0;entryPerimeter=0;labelBorderColor=none;exitX=0.157;exitY=0.367;exitDx=0;exitDy=0;exitPerimeter=0;textShadow=1;html=1;spacingTop=3;spacing=3;spacingLeft=10;" edge="1" parent="WIyWlLk6GJQsqaUBKTNV-1">
          <mxGeometry width="50" height="50" relative="1" as="geometry">
            <mxPoint x="952.932" y="423.64300000000003" as="sourcePoint" />
            <mxPoint x="847" y="382" as="targetPoint" />
          </mxGeometry>
        </mxCell>
        <mxCell id="jX0K1Ipz3QZNNp4KO0iQ-290" value="" style="endArrow=classic;rounded=1;fontFamily=Verdana;fontSize=12;fontColor=#000000;fontStyle=3;exitX=0.5;exitY=0;exitDx=0;exitDy=0;labelBackgroundColor=none;strokeColor=#006658;labelBorderColor=none;textShadow=1;html=1;spacingTop=3;spacing=3;spacingLeft=10;" edge="1" parent="WIyWlLk6GJQsqaUBKTNV-1">
          <mxGeometry width="50" height="50" relative="1" as="geometry">
            <mxPoint x="766" y="226" as="sourcePoint" />
            <mxPoint x="766.0000000000002" y="146" as="targetPoint" />
          </mxGeometry>
        </mxCell>
        <mxCell id="jX0K1Ipz3QZNNp4KO0iQ-185" value="Extends" style="text;align=center;verticalAlign=middle;resizable=0;points=[];autosize=1;strokeColor=none;fillColor=none;fontColor=#000000;fontFamily=Verdana;labelBorderColor=none;labelBackgroundColor=none;rounded=1;textShadow=1;html=1;spacingTop=3;spacing=3;spacingLeft=10;fontStyle=2" vertex="1" parent="WIyWlLk6GJQsqaUBKTNV-1">
          <mxGeometry x="732" y="217" width="76" height="29" as="geometry" />
        </mxCell>
        <mxCell id="jX0K1Ipz3QZNNp4KO0iQ-291" value="" style="endArrow=none;html=1;rounded=1;strokeColor=#006658;fontColor=#5C5C5C;fillColor=#21C0A5;exitX=0.475;exitY=0;exitDx=0;exitDy=0;exitPerimeter=0;" edge="1" parent="WIyWlLk6GJQsqaUBKTNV-1">
          <mxGeometry width="50" height="50" relative="1" as="geometry">
            <mxPoint x="767" y="312" as="sourcePoint" />
            <mxPoint x="767" y="244" as="targetPoint" />
          </mxGeometry>
        </mxCell>
      </root>
    </mxGraphModel>
  </diagram>
</mxfile>
